<?xml version="1.0" encoding="UTF-8" standalone="no"?>
<!DOCTYPE svg PUBLIC "-//W3C//DTD SVG 1.1//EN" "http://www.w3.org/Graphics/SVG/1.1/DTD/svg11.dtd">
<svg width="100%" height="100%" viewBox="0 0 1280 400" version="1.1" xmlns="http://www.w3.org/2000/svg" xmlns:xlink="http://www.w3.org/1999/xlink" xml:space="preserve" style="fill-rule:evenodd;clip-rule:evenodd;stroke-linejoin:round;stroke-miterlimit:1.41421;">
    <g transform="matrix(1.86291,0,0,1.82582,-246.571,-476.137)">
        <path d="M302.068,420.083C325.108,420.083 336.916,409.283 336.916,384.659L336.916,321.587L326.26,321.587L326.26,384.083C326.26,404.819 318.484,411.011 302.5,411.011C286.516,411.011 277.876,404.675 277.876,384.227L277.876,321.587L266.356,321.587L266.356,384.803C266.356,408.851 279.316,420.083 302.068,420.083Z" style="fill:rgb(51,51,51);fill-rule:nonzero;"/>
        <path d="M360.964,418.355L371.62,418.355L371.62,337.283L372.052,337.283L420.004,418.355L431.812,418.355L431.812,321.731L421.444,321.731L421.444,399.059L421.012,399.059L374.5,321.731L360.964,321.731L360.964,418.355Z" style="fill:rgb(51,51,51);fill-rule:nonzero;"/>
        <path d="M456.868,418.355L468.388,418.355L468.388,373.283L516.772,373.283L516.772,418.355L528.148,418.355L528.148,321.731L516.772,321.731L516.772,363.635L468.388,363.635L468.388,321.731L456.868,321.731L456.868,418.355Z" style="fill:rgb(51,51,51);fill-rule:nonzero;"/>
        <path d="M589.78,419.939C616.276,419.939 632.26,401.651 632.26,371.267L632.26,368.963C632.26,337.283 616.276,320.147 590.212,320.147C563.572,320.147 547.588,338.435 547.588,368.819L547.588,371.123C547.588,402.803 563.572,419.939 589.78,419.939ZM590.068,410.579C568.468,410.579 559.828,394.451 559.828,371.123L559.828,366.659C559.828,345.059 569.764,329.507 589.636,329.507C611.524,329.651 620.02,345.491 620.02,368.963L620.02,373.427C620.02,394.883 610.084,410.579 590.068,410.579Z" style="fill:rgb(51,51,51);fill-rule:nonzero;"/>
        <path d="M688.276,419.939C714.772,419.939 730.756,401.651 730.756,371.267L730.756,368.963C730.756,337.283 714.772,320.147 688.708,320.147C662.068,320.147 646.084,338.435 646.084,368.819L646.084,371.123C646.084,402.803 662.068,419.939 688.276,419.939ZM688.564,410.579C666.964,410.579 658.324,394.451 658.324,371.123L658.324,366.659C658.324,345.059 668.26,329.507 688.132,329.507C710.02,329.651 718.516,345.491 718.516,368.963L718.516,373.427C718.516,394.883 708.58,410.579 688.564,410.579Z" style="fill:rgb(51,51,51);fill-rule:nonzero;"/>
        <path d="M804.484,418.355L817.876,418.355L776.98,367.955L816.148,321.731L803.908,321.731L763.588,369.107L804.484,418.355ZM750.196,418.355L761.572,418.355L761.572,321.731L750.196,321.731L750.196,418.355Z" style="fill:rgb(51,51,51);fill-rule:nonzero;"/>
    </g>
    <g transform="matrix(2.27073,0,0,2.22551,-284.919,-1037.67)">
        <g transform="matrix(0.457214,0,0,0.457214,-93.2368,332.692)">
            <g>
                <g>
                    <g transform="matrix(0.465171,0,0,0.530671,368.083,375.172)">
                        <path d="M594.159,360.898L594.16,361.181C594.16,457.279 516.141,535.297 420.044,535.297C323.947,535.297 245.928,457.279 245.928,361.181L245.929,360.898L289.479,360.898L289.478,361.181C289.478,433.243 347.983,491.748 420.044,491.748C492.106,491.748 550.61,433.243 550.61,361.181L550.61,360.898L594.159,360.898Z" style="fill:rgb(20,182,148);"/>
                    </g>
                    <g transform="matrix(-1.32692,-0.0802444,-0.0463222,0.765985,1126.27,243.521)">
                        <path d="M416.588,486.324L468.796,486.324L468.796,329.901L416.588,486.324Z" style="fill:rgb(20,182,148);"/>
                    </g>
                    <g transform="matrix(0.655387,0,0,0.457772,145.177,352.985)">
                        <rect x="718.789" y="104.677" width="42.916" height="380.838" style="fill:rgb(20,182,148);"/>
                    </g>
                    <g transform="matrix(1.40444,0,0,1.40444,-70.7782,60.4733)">
                        <path d="M498.916,180.364C516.513,180.364 530.8,194.651 530.8,212.249C530.8,229.846 516.513,244.133 498.916,244.133C481.318,244.133 467.031,229.846 467.031,212.249C467.031,194.651 481.318,180.364 498.916,180.364ZM498.916,196.306C507.714,196.306 514.858,203.45 514.858,212.249C514.858,221.047 507.714,228.191 498.916,228.191C490.117,228.191 482.973,221.047 482.973,212.249C482.973,203.45 490.117,196.306 498.916,196.306Z" style="fill:rgb(20,182,148);"/>
                    </g>
                </g>
            </g>
        </g>
        <path d="M200.213,594.964C200.282,595.885 200.318,596.815 200.318,597.754C200.318,617.988 183.89,634.415 163.656,634.415C143.422,634.415 126.995,617.988 126.995,597.754C126.995,596.815 127.03,595.885 127.1,594.964L138.943,594.964C138.841,595.88 138.788,596.811 138.788,597.754C138.788,611.479 149.931,622.622 163.656,622.622C177.381,622.622 188.524,611.479 188.524,597.754C188.524,596.811 188.526,595.875 188.525,594.957L200.213,594.964Z" style="fill:rgb(20,182,148);"/>
    </g>
</svg>
