<?xml version="1.0" encoding="UTF-8" standalone="no"?>
<!DOCTYPE svg PUBLIC "-//W3C//DTD SVG 1.1//EN" "http://www.w3.org/Graphics/SVG/1.1/DTD/svg11.dtd">
<svg width="100%" height="100%" viewBox="0 0 5000 5000" version="1.1" xmlns="http://www.w3.org/2000/svg" xmlns:xlink="http://www.w3.org/1999/xlink" xml:space="preserve" style="fill-rule:evenodd;clip-rule:evenodd;stroke-linejoin:round;stroke-miterlimit:1.41421;">
    <g transform="matrix(4.16667,0,0,4.16667,0,0)">
        <path d="M263.012,106.825C340.893,106.825 404.027,154.511 404.027,213.334C404.027,230.8 398.46,247.284 388.595,261.83L437.864,332.25L358.209,291.906C333.124,309.255 299.707,319.844 263.012,319.844C185.132,319.844 121.999,272.158 121.999,213.334C121.999,154.511 185.132,106.825 263.012,106.825Z" style="fill:white;fill-rule:nonzero;"/>
        <path d="M214.877,180.003L214.877,253.71L202.458,253.71L202.458,222.751L191.568,222.751L191.118,251.82L178.699,251.64L179.688,180.272L192.108,180.453L191.748,206.191L202.458,206.191L202.458,180.003L214.877,180.003Z" style="fill:rgb(54,54,57);fill-rule:nonzero;"/>
        <path d="M234.497,192.513L234.497,204.032L255.736,204.032L255.736,216.541L235.037,216.541L234.497,237.24L257.896,237.24L257.896,252L234.497,252L220.278,252L220.278,237.24L220.278,216.541L220.278,204.032L220.278,192.513L220.278,180.003L257.896,180.003L257.896,192.513L234.497,192.513Z" style="fill:rgb(54,54,57);fill-rule:nonzero;"/>
        <path d="M277.426,239.49L296.416,239.49L296.416,252L263.297,252L263.297,180.363L277.426,180.363L277.426,239.49Z" style="fill:rgb(54,54,57);fill-rule:nonzero;"/>
        <path d="M315.946,191.343L315.856,207.632C327.465,206.191 327.465,200.522 327.465,198.183C327.465,196.742 326.206,195.482 325.125,194.672C322.606,192.872 319.186,191.792 315.946,191.343ZM315.497,251.64L300.017,251.55L300.557,180.272L309.376,180.272C310.636,180.093 311.896,180.003 313.247,180.003C319.636,180.003 326.746,182.073 331.696,185.763C336.105,189.093 338.536,193.502 338.536,198.183C338.536,203.942 336.196,216.722 315.766,218.791L315.497,251.64Z" style="fill:rgb(54,54,57);fill-rule:nonzero;"/>
        <path d="M352.934,235.711L341.415,235.891L341.595,180.003L356.714,181.623L352.934,235.711ZM347.535,239.851C350.594,239.671 353.745,242.641 353.745,246.061C353.745,249.48 350.955,252.18 347.535,252.18C344.205,252.18 341.325,248.58 341.325,246.061C341.325,242.641 344.115,239.94 347.535,239.851Z" style="fill:rgb(54,54,57);fill-rule:nonzero;"/>
        <path d="M494,693L494,762L597.676,762C614.244,762 628,748.282 628,731.714L628,693L494,693Z" style="fill:rgb(60,111,148);fill-rule:nonzero;"/>
        <path d="M555.907,922.562C553.36,922.562 550.817,922.398 548.272,922.071C522.125,918.709 509.699,896.832 503.742,879.071C497.077,859.201 494,831.384 494,794.03L494,740L529,740L529,794.03C529,827.074 531.56,851.942 536.925,867.942C543.011,886.086 550.112,887.009 552.816,887.356C579.987,890.866 613.049,843.612 624.82,820.188L656.074,835.905C655.613,836.823 644.566,858.625 627.07,879.841C603.666,908.223 579.754,922.56 555.907,922.562Z" style="fill:rgb(60,111,148);fill-rule:nonzero;"/>
        <path d="M633.906,922.562C631.359,922.562 628.816,922.398 626.271,922.071C600.126,918.709 587.699,896.832 581.742,879.071C575.078,859.201 572,831.384 572,794.03L572,740L607,740L607,794.03C607,827.074 609.56,851.942 614.927,867.942C621.011,886.086 628.111,887.009 630.814,887.356C657.994,890.866 691.049,843.612 702.82,820.188L734.074,835.905C733.613,836.823 722.566,858.625 705.07,879.841C681.666,908.223 657.754,922.56 633.906,922.562Z" style="fill:rgb(60,111,148);fill-rule:nonzero;"/>
        <path d="M639.623,792.505L661.326,802.751L648.096,830.782L626.389,820.538L639.623,792.505Z" style="fill:rgb(250,211,177);fill-rule:nonzero;"/>
        <path d="M717.338,787.168L646.801,753.872L642.105,763.819L712.643,797.116L717.338,787.168Z" style="fill:white;fill-rule:nonzero;"/>
        <path d="M664.76,807.192L659.875,817.536C653.74,814.136 652.857,807.599 654.99,803.077L638.35,795.203L642.105,763.819L712.643,797.116L709.836,803.062L664.76,807.192Z" style="fill:rgb(93,83,81);fill-rule:nonzero;"/>
        <path d="M624.438,814.128L660.639,831.143L654.258,844.718L618.059,827.703L624.438,814.128Z" style="fill:rgb(133,159,190);fill-rule:nonzero;"/>
        <path d="M724.652,795.23L745.182,807.662L729.123,834.179L708.594,821.747L724.652,795.23Z" style="fill:rgb(250,211,177);fill-rule:nonzero;"/>
        <path d="M802.502,797.949L735.781,757.547L730.084,766.955L796.805,807.359L802.502,797.949Z" style="fill:white;fill-rule:nonzero;"/>
        <path d="M748.135,812.437L742.211,822.22C736.461,818.203 736.258,811.61 738.848,807.332L723.107,797.783L730.084,766.955L796.805,807.359L793.398,812.981L748.135,812.437Z" style="fill:rgb(93,83,81);fill-rule:nonzero;"/>
        <path d="M701.438,815.128L737.639,832.143L731.258,845.718L695.059,828.703L701.438,815.128Z" style="fill:rgb(133,159,190);fill-rule:nonzero;"/>
        <path d="M671.229,319.186C666.044,285.644 649,196.148 567,190.299L567,190.101C567,190.083 566.34,190.058 565.87,190.045C564.015,189.993 562.331,189.995 560.535,190.02C558.739,189.995 556.998,189.993 555.143,190.045C554.672,190.058 554,190.083 554,190.101L554,190.29C471,196.028 454.953,285.622 449.764,319.186C444.985,356.427 450.024,403.261 450.024,403.261C593.511,421.262 671.228,403.261 671.228,403.261C671.228,403.261 676.007,356.426 671.229,319.186Z" style="fill:rgb(93,83,81);fill-rule:nonzero;"/>
        <path d="M642.154,313.397C642.895,358.354 607.051,395.398 562.094,396.139C517.137,396.879 480.092,361.033 479.354,316.076L478.854,285.718C478.114,240.762 513.958,203.718 558.915,202.977C603.873,202.238 640.918,238.082 641.656,283.04L642.154,313.397Z" style="fill:rgb(250,211,177);fill-rule:nonzero;"/>
        <path d="M502.718,314.374C502.917,326.463 493.3,336.426 481.239,336.625C469.176,336.822 459.235,327.184 459.035,315.092C458.837,303 468.454,293.04 480.519,292.841C492.581,292.644 502.521,302.283 502.718,314.374Z" style="fill:rgb(250,211,177);fill-rule:nonzero;"/>
        <path d="M496.866,393.84L476.204,398.83C476.204,398.83 473.026,314.811 477.659,269.065C477.659,269.065 487.391,222.729 498.848,213.112C513.649,200.69 574.771,198.678 574.771,198.678C574.771,198.678 502.096,226.683 496.866,393.84Z" style="fill:rgb(93,83,81);fill-rule:nonzero;"/>
        <path d="M568.396,216.323L661.049,368.529C661.049,368.529 669.277,296.826 643.074,260.105C603.793,205.054 568.396,216.323 568.396,216.323Z" style="fill:rgb(93,83,81);fill-rule:nonzero;"/>
        <path d="M460.004,281.364C454.551,255.481 480.692,182.15 481.526,154.838C482.128,135.063 498.909,127.91 511.014,125.408C526.401,122.231 546.725,124.363 554.079,138.376C563.168,155.705 585.067,171.594 591.427,176.34C610.848,190.832 639.381,222.286 644.775,247.868L460.004,281.364Z" style="fill:rgb(227,114,124);fill-rule:nonzero;"/>
        <path d="M661.238,260.544C661.484,262.216 659.918,263.601 658.18,263.855L452.29,296.87C450.549,297.125 448.653,296.252 448.406,294.583L449.917,256.529C449.668,254.856 451.237,253.473 452.973,253.217L642.889,223.341C644.631,223.084 646.527,223.956 646.775,225.627L661.238,260.544Z" style="fill:rgb(211,108,121);fill-rule:nonzero;"/>
        <path d="M584.058,360.035C583.676,370.805 575.698,379.26 566.237,378.924C556.774,378.59 549.417,369.588 549.801,358.82C550.182,348.051 558.157,339.596 567.62,339.932C577.081,340.266 584.44,349.266 584.058,360.035Z" style="fill:rgb(190,85,94);fill-rule:nonzero;"/>
        <path d="M566.237,378.924C573.075,379.166 579.137,374.814 582.118,368.314C579.677,362.656 574.167,359.166 567.042,356.217C561.6,353.967 555.131,351.533 550.922,352.605C550.27,354.547 549.877,356.635 549.801,358.82C549.417,369.588 556.774,378.59 566.237,378.924Z" style="fill:rgb(210,108,108);fill-rule:nonzero;"/>
        <path d="M514.732,325.592L543.389,321.869C544.327,321.748 545.051,320.982 545.12,320.037C545.192,319.098 544.591,318.234 543.681,317.973L513.417,309.299C512.36,308.996 511.252,309.607 510.95,310.666C510.646,311.725 511.258,312.83 512.318,313.133L527.857,319.553L514.218,321.635C513.128,321.777 512.357,322.777 512.5,323.869C512.641,324.963 513.641,325.732 514.732,325.592Z" style="fill:rgb(54,54,57);fill-rule:nonzero;"/>
        <path d="M621.602,324.607C622.482,324.422 623.17,323.666 623.225,322.725C623.291,321.596 622.43,320.625 621.301,320.561L605.748,319.504L622.637,311.713C623.697,311.324 624.244,310.15 623.857,309.09C623.471,308.025 622.293,307.482 621.234,307.865L590.86,318.936C589.948,319.27 589.394,320.195 589.536,321.158C589.678,322.117 590.473,322.848 591.439,322.904L621.061,324.648C621.246,324.658 621.428,324.645 621.602,324.607Z" style="fill:rgb(54,54,57);fill-rule:nonzero;"/>
        <path d="M467.199,751.318L437.798,745.35C438.02,744.26 459.977,636.049 463.882,611.641C466.584,594.752 461.896,535.986 458.085,500.606L487.912,497.394C488.927,506.811 497.701,590.156 493.505,616.381C489.501,641.401 468.107,746.842 467.199,751.318Z" style="fill:rgb(250,211,177);fill-rule:nonzero;"/>
        <path d="M659.092,751.318C658.184,746.842 636.789,641.401 632.785,616.381C628.59,590.157 637.363,506.811 638.377,497.394L668.205,500.606C664.396,535.991 659.709,594.761 662.408,611.641C666.314,636.051 688.27,744.26 688.492,745.35L659.092,751.318Z" style="fill:rgb(250,211,177);fill-rule:nonzero;"/>
        <path d="M638,521.24L678.212,505.09C674.644,461.07 631.045,409.164 561.573,409.164C492.097,409.164 448.441,461.07 444.873,505.09L485,521.24L485,726L638,726L638,521.24Z" style="fill:rgb(54,54,57);fill-rule:nonzero;"/>
        <path d="M589.614,412.162C585.689,411.228 583.452,410.929 578.614,410.249L576.083,383.859L548.051,382.84L546.983,409.939C541.225,410.514 538.126,411.006 533.534,412.123C533.418,413.522 533.531,414.725 533.587,416.167C534.275,433.402 547.368,446.75 562.831,445.983C578.293,445.215 590.272,430.621 589.585,413.387C589.575,413.104 589.631,412.443 589.614,412.162Z" style="fill:rgb(250,211,177);fill-rule:nonzero;"/>
        <path d="M613.975,675.502C614.84,669.68 619.904,667.018 625.367,666.515C647.248,664.5 657.791,659.773 671.727,656.339C682.672,653.641 684.748,681.5 673.998,684.5C656.998,689.59 644.248,692.001 622.23,687.599C616.844,686.521 613.109,681.324 613.975,675.502Z" style="fill:rgb(172,106,148);fill-rule:nonzero;"/>
        <path d="M606.047,660.813C530.944,660.813 461.92,645.884 458.292,644.924C437.798,639.5 449.032,597 466.957,605.874L466.957,605.873C468.031,606.111 576.34,634.866 662.408,617.197C682.986,612.973 684.998,654 668.018,656.803C647.789,660.142 626.648,660.813 606.047,660.813Z" style="fill:rgb(172,106,148);fill-rule:nonzero;"/>
        <path d="M671.727,656.339C657.791,659.773 647.248,664.5 625.367,666.515C619.904,667.018 614.84,669.68 613.975,675.502C613.109,681.324 616.844,686.521 622.23,687.599C626.561,688.464 630.521,689.058 634.236,689.428C655.029,685.25 673.848,671.963 680.805,666.594C679.902,660.31 676.754,655.1 671.727,656.339Z" style="fill:rgb(172,106,148);fill-rule:nonzero;"/>
        <path d="M673.998,684.5C679.811,682.878 681.867,673.991 680.805,666.594C678.555,668.33 672.014,665.351 667.332,667.667C658.998,671.791 662.732,675.303 659.25,677.167C656.707,678.528 654.451,676.916 651.639,678.167C645.758,680.781 640.83,688.104 634.236,689.428C637.592,689.762 640.738,689.907 643.752,689.888C647.52,689.862 651.205,692.165 654.703,691.667C658.879,691.073 662.844,687.588 667.1,686.46C669.342,685.866 671.629,685.209 673.998,684.5Z" style="fill:rgb(149,88,129);fill-rule:nonzero;"/>
        <path d="M668.018,656.803C675.541,655.562 679.332,646.817 679.438,637.829C674.596,638.946 669.084,634.183 658.748,636C651.639,637.25 651.186,643.865 646.26,644.81C642.098,645.607 639.91,638.794 631.656,640.5C622.998,642.29 623.855,647.841 618.979,648.627C615.5,649.188 611.115,648.784 607.498,649.32C587.346,652.308 566.099,656.785 544.442,657.819C563.553,659.588 584.549,660.813 606.047,660.813C610.623,660.813 615.225,660.779 619.838,660.691C624.6,660.601 629.471,662.732 634.236,662.5C639.475,662.245 644.605,659.609 649.807,659.123C655.932,658.55 662.014,657.794 668.018,656.803Z" style="fill:rgb(149,88,129);fill-rule:nonzero;"/>
        <path d="M660.129,642.581C665.598,641.462 670.719,643.673 671.564,647.524C672.41,651.376 668.66,655.405 663.191,656.528C657.723,657.649 652.602,655.438 651.758,651.585C650.91,647.733 654.66,643.704 660.129,642.581Z" style="fill:rgb(149,88,129);fill-rule:nonzero;"/>
        <path d="M662.961,644.967C662.205,644.967 661.432,645.046 660.666,645.203C658.141,645.722 655.994,647.013 654.926,648.656C654.395,649.475 654.207,650.267 654.371,651.011C654.77,652.826 657.287,654.144 660.357,654.144C661.115,654.144 661.887,654.063 662.654,653.906C665.182,653.388 667.328,652.097 668.395,650.453C668.928,649.635 669.113,648.843 668.949,648.099C668.553,646.283 666.033,644.967 662.961,644.967ZM660.357,659.496C654.611,659.496 650.105,656.547 649.143,652.158C648.674,650.027 649.135,647.748 650.438,645.741C652.295,642.88 655.631,640.772 659.592,639.959C660.711,639.73 661.846,639.614 662.961,639.614C668.707,639.614 673.215,642.563 674.178,646.951C674.646,649.082 674.188,651.361 672.885,653.368C671.025,656.229 667.689,658.337 663.73,659.15C662.609,659.38 661.475,659.496 660.357,659.496Z" style="fill:rgb(206,165,196);fill-rule:nonzero;"/>
        <path d="M632.777,645.26C637.137,644.367 641.219,646.13 641.893,649.2C642.566,652.271 639.578,655.482 635.219,656.377C630.859,657.271 626.777,655.508 626.104,652.438C625.43,649.367 628.418,646.154 632.777,645.26Z" style="fill:rgb(149,88,129);fill-rule:nonzero;"/>
        <path d="M635.035,647.161C634.432,647.161 633.816,647.225 633.205,647.35C631.191,647.763 629.48,648.792 628.631,650.103C628.207,650.755 628.057,651.387 628.188,651.979C628.506,653.427 630.512,654.477 632.959,654.477C633.563,654.477 634.18,654.412 634.791,654.287C636.805,653.874 638.516,652.845 639.365,651.535C639.791,650.883 639.939,650.251 639.809,649.657C639.492,648.211 637.484,647.161 635.035,647.161ZM632.959,658.743C628.379,658.743 624.787,656.393 624.02,652.895C623.646,651.195 624.014,649.378 625.053,647.778C626.533,645.497 629.193,643.817 632.35,643.17C633.242,642.987 634.146,642.895 635.035,642.895C639.615,642.895 643.209,645.245 643.977,648.743C644.35,650.443 643.982,652.261 642.943,653.86C641.463,656.141 638.803,657.819 635.648,658.467C634.754,658.65 633.85,658.743 632.959,658.743Z" style="fill:rgb(206,165,196);fill-rule:nonzero;"/>
        <path d="M668.814,671.85C672.424,670.465 676.174,671.396 677.188,673.932C678.199,676.469 676.096,679.646 672.486,681.033C668.877,682.42 665.127,681.486 664.113,678.951C663.098,676.415 665.203,673.236 668.814,671.85Z" style="fill:rgb(149,88,129);fill-rule:nonzero;"/>
        <path d="M672.168,673.062C671.293,673.062 670.361,673.241 669.479,673.58C667.811,674.221 666.49,675.346 665.947,676.59C665.676,677.21 665.639,677.772 665.834,678.263C666.213,679.21 667.508,679.821 669.133,679.821C670.008,679.821 670.938,679.643 671.82,679.303C673.488,678.662 674.809,677.538 675.352,676.295C675.539,675.868 675.709,675.23 675.465,674.619C675.088,673.673 673.793,673.062 672.168,673.062ZM669.133,683.529C665.934,683.529 663.352,682.039 662.391,679.64C661.83,678.235 661.885,676.625 662.549,675.106C663.494,672.94 665.535,671.123 668.148,670.119C669.453,669.619 670.844,669.354 672.168,669.354C675.367,669.354 677.949,670.845 678.908,673.244C679.469,674.65 679.412,676.261 678.748,677.779C677.803,679.944 675.762,681.761 673.15,682.764C671.848,683.265 670.457,683.529 669.133,683.529Z" style="fill:rgb(206,165,196);fill-rule:nonzero;"/>
        <path d="M653.447,682.075C656.855,681.193 660.15,682.419 660.809,684.818C661.465,687.218 659.236,689.876 655.826,690.761C652.42,691.646 649.123,690.416 648.467,688.02C647.809,685.621 650.039,682.96 653.447,682.075Z" style="fill:rgb(149,88,129);fill-rule:nonzero;"/>
        <path d="M655.652,683.478C655.064,683.478 654.465,683.556 653.871,683.709C652.297,684.117 650.988,685 650.369,686.07C650.156,686.438 649.936,686.996 650.094,687.573C650.383,688.625 651.832,689.36 653.621,689.36C654.207,689.36 654.807,689.281 655.402,689.127C656.979,688.719 658.287,687.836 658.906,686.768C659.215,686.234 659.309,685.728 659.182,685.264C658.893,684.212 657.441,683.478 655.652,683.478ZM653.621,692.735C650.264,692.735 647.537,691.02 646.838,688.465C646.475,687.137 646.689,685.686 647.447,684.379C648.525,682.517 650.557,681.081 653.023,680.441C653.896,680.216 654.779,680.102 655.652,680.102C659.01,680.102 661.736,681.817 662.438,684.372C662.801,685.702 662.584,687.153 661.828,688.459C660.75,690.32 658.717,691.755 656.25,692.395C655.379,692.621 654.494,692.735 653.621,692.735Z" style="fill:rgb(206,165,196);fill-rule:nonzero;"/>
        <path d="M608.043,653.692C612.055,653.039 615.717,654.801 616.219,657.628C616.719,660.458 613.873,663.277 609.857,663.934C605.846,664.588 602.186,662.826 601.684,659.998C601.182,657.17 604.029,654.349 608.043,653.692Z" style="fill:rgb(149,88,129);fill-rule:nonzero;"/>
        <path d="M609.709,655.506C609.262,655.506 608.807,655.543 608.355,655.616C606.502,655.92 604.9,656.796 604.076,657.96C603.664,658.54 603.506,659.111 603.602,659.657C603.852,661.062 605.824,662.121 608.189,662.121C608.637,662.121 609.092,662.083 609.545,662.01C611.398,661.706 613,660.831 613.824,659.667C614.236,659.087 614.396,658.515 614.299,657.968C614.051,656.564 612.076,655.506 609.709,655.506ZM608.189,666.02C603.822,666.02 600.357,663.684 599.764,660.339C599.486,658.772 599.888,657.128 600.895,655.706C602.332,653.679 604.822,652.244 607.729,651.769C608.387,651.661 609.053,651.607 609.709,651.607C614.078,651.607 617.545,653.943 618.139,657.288C618.416,658.855 618.014,660.501 617.004,661.923C615.568,663.948 613.078,665.383 610.172,665.857C609.514,665.965 608.846,666.02 608.189,666.02Z" style="fill:rgb(206,165,196);fill-rule:nonzero;"/>
        <path d="M941.998,485.394C811.578,476.596 734.998,548.333 651.666,567.667C647.994,568.462 644.588,569.206 641.418,569.904C557.096,583.809 472.562,560.48 471.624,560.217C468.241,559.259 465.067,558.515 462.475,559.442C443.625,566.18 448.609,597.442 459.512,606.875C460.838,608.021 462.246,608.866 463.715,609.283C467.005,610.218 515.583,625.399 583.909,625.399C615.25,625.399 649.492,622.203 682.986,612.973C684.662,612.511 686.252,611.891 687.746,611.135C733.109,599.056 775.121,581.672 832.645,575.323C859.926,572.311 890.998,552.174 926.971,575.479C945.348,577.353 965.664,582.06 986.699,588.564C1004.68,594.124 1025.4,591.148 1043.66,598.688C1060.16,605.496 1074.24,622.697 1089.79,630.117C1103.63,636.723 1120.74,634.623 1133,641C1148.49,649.062 1158.52,665.432 1170.05,671.914C1183.99,679.761 1194.45,685.953 1200,689.29L1200,632.387L1200,555.402C1138.91,521.926 1034.82,491.655 941.998,485.394Z" style="fill:rgb(172,106,148);fill-rule:nonzero;"/>
        <path d="M583.909,625.399C593.334,625.231 602.793,625.1 611.939,627.073C618.408,628.469 624.553,632.338 631.158,631.721C637.791,631.102 641.623,623.255 648.166,621.504C654.32,619.857 659.756,624.934 669.998,623.667C679.438,622.5 682.766,614.887 687.832,614.423C695.59,613.712 700.908,620.415 717.248,617C727.086,614.944 728.66,607.5 735.748,605.5C742.928,603.474 748.498,609.145 758.998,606.287C772.119,602.717 771.514,594.179 777.998,592.75C785.117,591.182 790.465,595.381 798.064,593.967C805.5,592.583 812.115,587.536 819.906,586.382C828.119,585.166 829.756,591.108 846.498,589.84C859.467,588.857 871.311,569.233 884.521,569C898.799,568.749 913.604,579.856 927.666,581.289C937.295,582.271 945.297,579.437 955,585.256C963.023,590.069 970.58,599.916 979.666,602.667C998.146,608.262 1021.15,596.651 1040,604.333C1057.04,611.279 1064.11,636.16 1080,644.5C1100,655 1117.37,639.05 1129.74,645.867C1144.85,654.193 1141.57,677 1157.91,686C1177.09,696.564 1194.42,688.314 1200,691.667L1200,632.387L1200,632.355C1200,632.355 1192.24,634.063 1182.25,629.25C1172.72,624.661 1162.79,607.047 1147.5,600C1133.79,593.685 1114.37,600.114 1098.5,593.25C1080.92,585.649 1072.78,567.115 1048.75,562.83C1035,560.378 1023.34,567.872 1015,565.83C1005.49,563.505 1001.39,554.5 991.498,553.939C980.037,553.29 977.389,558.183 966.496,556.437C956.732,554.871 949.879,541.304 940.248,540.678C933.684,540.25 925.605,544.389 919.115,544.371C907.791,544.339 903.666,528.976 884.521,529C863.957,529.026 863.09,548.449 854.498,549.939C848.539,550.974 843.238,546.694 837.332,548C829.48,549.736 825.691,556.928 817.998,559C811.221,560.826 804.248,552.174 791.666,554.667C782.373,556.507 775.873,566.816 766.998,569.824C760.049,572.179 751.184,571.054 744.334,573.486C737.645,575.861 735.939,580.949 729.334,583.334C723.453,585.458 712.26,582.137 706.439,584.222C698.76,586.972 694.592,594.41 687,597.001C679.672,599.503 671.684,591.108 660.924,594.84C654.389,597.106 648.467,605.42 641.902,607.204C636.9,608.563 630.908,605.834 625.924,607.001C618.104,608.831 612.621,614.685 604.998,616.747C563.371,628.012 485.757,611.603 459.512,606.875C460.838,608.021 462.246,608.866 463.715,609.283C467.005,610.218 515.594,626.618 583.909,625.399Z" style="fill:rgb(149,88,129);fill-rule:nonzero;"/>
        <path d="M933.133,552.248C941.418,551.564 948.596,555.746 949.16,561.591C949.725,567.435 943.465,572.727 935.178,573.413C926.891,574.097 919.713,569.915 919.15,564.069C918.584,558.225 924.846,552.933 933.133,552.248Z" style="fill:rgb(149,88,129);fill-rule:nonzero;"/>
        <path d="M934.902,556.16C934.426,556.16 933.939,556.18 933.461,556.22C929.631,556.536 926.229,558.063 924.357,560.302C923.426,561.418 923.008,562.557 923.117,563.685C923.426,566.892 928.041,569.5 933.406,569.5C933.883,569.5 934.369,569.48 934.85,569.44C938.678,569.124 942.08,567.598 943.951,565.358C944.592,564.59 945.328,563.38 945.191,561.974C944.883,558.768 940.266,556.16 934.902,556.16ZM933.406,577.472C923.732,577.472 915.898,571.874 915.182,564.451C914.869,561.216 915.955,557.927 918.24,555.192C921.498,551.292 926.807,548.771 932.805,548.275C933.502,548.218 934.207,548.188 934.902,548.188C944.574,548.188 952.41,553.786 953.127,561.208C953.439,564.445 952.354,567.734 950.068,570.469C946.811,574.368 941.504,576.889 935.506,577.385C934.807,577.442 934.102,577.472 933.406,577.472Z" style="fill:rgb(206,165,196);fill-rule:nonzero;"/>
        <path d="M883.441,538.755C892.197,538.033 899.783,542.453 900.379,548.63C900.977,554.807 894.359,560.4 885.602,561.124C876.844,561.848 869.26,557.427 868.664,551.25C868.066,545.073 874.682,539.48 883.441,538.755Z" style="fill:rgb(149,88,129);fill-rule:nonzero;"/>
        <path d="M885.311,542.891C884.807,542.891 884.295,542.912 883.787,542.954C879.742,543.288 876.145,544.901 874.168,547.269C873.182,548.448 872.74,549.651 872.855,550.844C873.184,554.233 878.061,556.989 883.729,556.989C884.232,556.989 884.746,556.968 885.254,556.925C889.301,556.591 892.896,554.979 894.875,552.612C895.553,551.8 896.33,550.521 896.186,549.036C895.859,545.647 890.98,542.891 885.311,542.891ZM883.729,565.414C873.506,565.414 865.227,559.498 864.471,551.654C864.141,548.234 865.287,544.758 867.701,541.868C871.145,537.746 876.754,535.082 883.094,534.557C883.832,534.497 884.578,534.465 885.311,534.465C895.533,534.465 903.814,540.381 904.572,548.226C904.902,551.647 903.754,555.123 901.34,558.014C897.896,562.134 892.287,564.798 885.949,565.322C885.211,565.383 884.463,565.414 883.729,565.414Z" style="fill:rgb(206,165,196);fill-rule:nonzero;"/>
        <path d="M841.93,560.452C850.215,559.768 857.393,563.95 857.957,569.795C858.521,575.639 852.262,580.931 843.975,581.617C835.688,582.301 828.51,578.119 827.947,572.273C827.381,566.429 833.643,561.137 841.93,560.452Z" style="fill:rgb(149,88,129);fill-rule:nonzero;"/>
        <path d="M843.699,564.364C843.223,564.364 842.736,564.384 842.258,564.424C838.428,564.74 835.025,566.267 833.154,568.506C832.223,569.623 831.805,570.761 831.914,571.889C832.223,575.096 836.838,577.704 842.203,577.704C842.68,577.704 843.166,577.684 843.646,577.645C847.475,577.328 850.877,575.802 852.748,573.562C853.389,572.794 854.125,571.584 853.988,570.178C853.68,566.972 849.063,564.364 843.699,564.364ZM842.203,585.676C832.529,585.676 824.695,580.078 823.979,572.655C823.666,569.42 824.752,566.131 827.037,563.396C830.295,559.496 835.604,556.975 841.602,556.479C842.299,556.422 843.004,556.393 843.699,556.393C853.371,556.393 861.207,561.99 861.924,569.412C862.236,572.649 861.15,575.938 858.865,578.673C855.607,582.572 850.301,585.093 844.303,585.589C843.604,585.646 842.898,585.676 842.203,585.676Z" style="fill:rgb(206,165,196);fill-rule:nonzero;"/>
        <path d="M793.504,565.197C801.648,563.528 809.275,566.823 810.533,572.559C811.793,578.293 806.209,584.296 798.064,585.967C789.918,587.637 782.293,584.342 781.035,578.605C779.775,572.871 785.359,566.868 793.504,565.197Z" style="fill:rgb(149,88,129);fill-rule:nonzero;"/>
        <path d="M797.725,568.75C796.598,568.75 795.445,568.868 794.305,569.102C790.541,569.874 787.346,571.796 785.756,574.243C784.963,575.463 784.686,576.643 784.928,577.75C785.521,580.454 789.27,582.415 793.842,582.415C794.971,582.415 796.121,582.296 797.264,582.062C801.025,581.291 804.223,579.368 805.813,576.921C806.357,576.083 806.943,574.793 806.641,573.413C806.047,570.71 802.297,568.75 797.725,568.75ZM793.842,590.387C785.287,590.387 778.576,585.995 777.143,579.459C776.445,576.284 777.129,572.889 779.07,569.9C781.84,565.64 786.809,562.502 792.703,561.293C794.371,560.951 796.061,560.778 797.725,560.778C806.281,560.778 812.992,565.169 814.428,571.704C815.125,574.881 814.439,578.276 812.496,581.264C809.729,585.525 804.76,588.662 798.865,589.871C797.197,590.213 795.506,590.387 793.842,590.387Z" style="fill:rgb(206,165,196);fill-rule:nonzero;"/>
        <path d="M751.998,581.672C759.188,580.199 765.922,583.107 767.033,588.171C768.145,593.234 763.215,598.533 756.023,600.008C748.832,601.482 742.1,598.574 740.99,593.509C739.877,588.446 744.807,583.147 751.998,581.672Z" style="fill:rgb(149,88,129);fill-rule:nonzero;"/>
        <path d="M755.723,584.808C754.729,584.808 753.713,584.913 752.705,585.119C749.383,585.801 746.561,587.498 745.158,589.658C744.459,590.735 744.213,591.776 744.428,592.753C744.951,595.141 748.26,596.873 752.295,596.873C753.291,596.873 754.309,596.768 755.316,596.561C758.639,595.879 761.461,594.183 762.865,592.022C763.346,591.282 763.863,590.144 763.596,588.925C763.072,586.54 759.762,584.808 755.723,584.808ZM752.295,603.91C744.742,603.91 738.816,600.033 737.553,594.262C736.938,591.461 737.541,588.463 739.256,585.825C741.699,582.063 746.086,579.292 751.291,578.225C752.764,577.923 754.254,577.77 755.723,577.77C763.277,577.77 769.203,581.647 770.471,587.417C771.086,590.221 770.48,593.219 768.766,595.857C766.322,599.619 761.936,602.388 756.73,603.455C755.258,603.757 753.766,603.91 752.295,603.91Z" style="fill:rgb(206,165,196);fill-rule:nonzero;"/>
        <path d="M709.656,591.491C716.846,590.018 723.58,592.926 724.691,597.99C725.803,603.053 720.873,608.353 713.682,609.827C706.49,611.302 699.758,608.394 698.648,603.328C697.535,598.266 702.465,592.966 709.656,591.491Z" style="fill:rgb(149,88,129);fill-rule:nonzero;"/>
        <path d="M713.381,594.627C712.387,594.627 711.371,594.732 710.363,594.938C707.041,595.62 704.219,597.317 702.814,599.478C702.117,600.554 701.871,601.596 702.086,602.572C702.609,604.961 705.918,606.691 709.953,606.691C710.949,606.691 711.967,606.587 712.975,606.38C716.297,605.699 719.119,604.002 720.523,601.842C721.004,601.102 721.521,599.963 721.254,598.745C720.73,596.359 717.42,594.627 713.381,594.627ZM709.953,613.729C702.4,613.729 696.475,609.852 695.211,604.081C694.596,601.28 695.199,598.283 696.914,595.645C699.357,591.882 703.744,589.112 708.949,588.044C710.422,587.742 711.912,587.589 713.381,587.589C720.936,587.589 726.861,591.466 728.129,597.236C728.744,600.04 728.139,603.038 726.424,605.676C723.98,609.438 719.594,612.207 714.389,613.274C712.916,613.576 711.424,613.729 709.953,613.729Z" style="fill:rgb(206,165,196);fill-rule:nonzero;"/>
        <path d="M664.303,602.328C670.482,601.063 676.271,603.563 677.227,607.915C678.184,612.268 673.945,616.824 667.764,618.092C661.58,619.359 655.793,616.859 654.838,612.505C653.883,608.152 658.119,603.598 664.303,602.328Z" style="fill:rgb(149,88,129);fill-rule:nonzero;"/>
        <path d="M667.504,605.024C666.648,605.024 665.775,605.114 664.91,605.292C662.055,605.878 659.627,607.338 658.42,609.195C657.82,610.12 657.609,611.016 657.793,611.855C658.242,613.907 661.088,615.396 664.559,615.396C665.414,615.396 666.289,615.306 667.156,615.128C670.012,614.543 672.438,613.084 673.645,611.227C674.057,610.59 674.502,609.611 674.271,608.564C673.822,606.513 670.977,605.024 667.504,605.024ZM664.559,621.446C658.064,621.446 652.971,618.113 651.883,613.153C651.354,610.743 651.873,608.167 653.348,605.899C655.447,602.665 659.219,600.284 663.695,599.365C664.961,599.105 666.242,598.974 667.504,598.974C673.998,598.974 679.094,602.307 680.182,607.267C680.711,609.677 680.191,612.254 678.717,614.522C676.617,617.757 672.846,620.138 668.371,621.056C667.105,621.314 665.822,621.446 664.559,621.446Z" style="fill:rgb(206,165,196);fill-rule:nonzero;"/>
        <path d="M628.293,614.676C633.055,613.701 637.514,615.626 638.25,618.979C638.986,622.333 635.723,625.842 630.961,626.819C626.197,627.795 621.74,625.869 621.004,622.516C620.268,619.162 623.531,615.653 628.293,614.676Z" style="fill:rgb(149,88,129);fill-rule:nonzero;"/>
        <path d="M630.76,616.753C630.102,616.753 629.428,616.822 628.76,616.959C626.561,617.41 624.693,618.534 623.764,619.965C623.301,620.678 623.139,621.368 623.281,622.016C623.627,623.596 625.818,624.742 628.492,624.742C629.152,624.742 629.824,624.673 630.492,624.536C632.691,624.085 634.561,622.961 635.49,621.53C635.953,620.816 636.117,620.127 635.975,619.479C635.627,617.899 633.434,616.753 630.76,616.753ZM628.492,629.403C623.49,629.403 619.566,626.836 618.729,623.015C618.32,621.159 618.721,619.174 619.855,617.427C621.473,614.936 624.377,613.101 627.824,612.393C628.801,612.193 629.787,612.092 630.76,612.092C635.764,612.092 639.688,614.659 640.527,618.479C640.934,620.337 640.533,622.321 639.398,624.068C637.781,626.56 634.875,628.395 631.43,629.103C630.453,629.302 629.465,629.403 628.492,629.403Z" style="fill:rgb(206,165,196);fill-rule:nonzero;"/>
        <path d="M1051.87,574.273C1060.4,578.544 1064.94,586.922 1062,592.989C1059.07,599.053 1049.78,600.51 1041.25,596.238C1032.72,591.968 1028.18,583.59 1031.11,577.523C1034.04,571.458 1043.33,570.004 1051.87,574.273Z" style="fill:rgb(149,88,129);fill-rule:nonzero;"/>
        <path d="M1042.02,576.396C1038.71,576.396 1036.17,577.562 1035.23,579.514C1033.64,582.788 1036.57,588.782 1043.3,592.149C1045.87,593.436 1048.56,594.116 1051.1,594.116C1054.41,594.116 1056.94,592.95 1057.89,590.999C1059.47,587.725 1056.54,581.73 1049.82,578.363C1047.25,577.077 1044.55,576.396 1042.02,576.396ZM1051.1,603.262C1047.15,603.262 1043.04,602.247 1039.2,600.327C1028.28,594.859 1022.92,583.968 1026.99,575.533C1029.5,570.347 1035.12,567.25 1042.02,567.25C1045.96,567.25 1050.08,568.265 1053.91,570.184C1064.84,575.653 1070.2,586.544 1066.12,594.979C1063.61,600.166 1058,603.262 1051.1,603.262Z" style="fill:rgb(206,165,196);fill-rule:nonzero;"/>
        <path d="M1096.47,613.617C1105,617.888 1109.54,626.266 1106.61,632.333C1103.67,638.396 1094.38,639.854 1085.85,635.582C1077.32,631.312 1072.78,622.934 1075.71,616.867C1078.64,610.802 1087.94,609.348 1096.47,613.617Z" style="fill:rgb(149,88,129);fill-rule:nonzero;"/>
        <path d="M1086.62,615.74C1083.31,615.74 1080.77,616.905 1079.83,618.857C1078.25,622.131 1081.17,628.125 1087.9,631.492C1090.47,632.779 1093.17,633.459 1095.7,633.459C1099.01,633.459 1101.54,632.294 1102.49,630.343C1104.07,627.069 1101.15,621.074 1094.42,617.706C1091.85,616.42 1089.15,615.74 1086.62,615.74ZM1095.7,642.605C1091.75,642.605 1087.64,641.591 1083.8,639.671C1072.88,634.203 1067.52,623.313 1071.6,614.877C1074.1,609.69 1079.72,606.595 1086.62,606.595C1090.57,606.595 1094.68,607.608 1098.51,609.527C1109.44,614.996 1114.8,625.888 1110.72,634.323C1108.21,639.51 1102.6,642.605 1095.7,642.605Z" style="fill:rgb(206,165,196);fill-rule:nonzero;"/>
        <path d="M1146.88,608.736C1155.41,613.007 1159.95,621.385 1157.02,627.452C1154.08,633.516 1144.79,634.973 1136.26,630.701C1127.73,626.431 1123.19,618.053 1126.12,611.986C1129.05,605.921 1138.35,604.467 1146.88,608.736Z" style="fill:rgb(149,88,129);fill-rule:nonzero;"/>
        <path d="M1137.03,610.859C1133.72,610.859 1131.18,612.024 1130.24,613.977C1128.66,617.25 1131.58,623.244 1138.31,626.611C1140.88,627.898 1143.58,628.578 1146.11,628.578C1149.42,628.578 1151.96,627.413 1152.9,625.462C1154.48,622.188 1151.56,616.193 1144.83,612.825C1142.26,611.539 1139.56,610.859 1137.03,610.859ZM1146.11,637.725C1142.16,637.725 1138.05,636.71 1134.21,634.79C1123.29,629.322 1117.93,618.432 1122.01,609.996C1124.51,604.81 1130.13,601.714 1137.03,601.714C1140.98,601.714 1145.09,602.728 1148.92,604.646C1159.85,610.115 1165.21,621.007 1161.13,629.442C1158.63,634.629 1153.01,637.725 1146.11,637.725Z" style="fill:rgb(206,165,196);fill-rule:nonzero;"/>
        <path d="M1179.8,651.705C1189.58,656.604 1194.79,666.213 1191.43,673.172C1188.06,680.126 1177.41,681.797 1167.62,676.898C1157.84,672 1152.63,662.391 1155.99,655.433C1159.36,648.477 1170.01,646.809 1179.8,651.705Z" style="fill:rgb(149,88,129);fill-rule:nonzero;"/>
        <path d="M1168.5,654.141C1164.71,654.141 1161.8,655.477 1160.71,657.715C1158.9,661.471 1162.26,668.346 1169.97,672.208C1172.92,673.684 1176.01,674.463 1178.92,674.463C1182.71,674.463 1185.62,673.127 1186.71,670.889C1188.52,667.134 1185.16,660.258 1177.45,656.396C1174.5,654.921 1171.41,654.141 1168.5,654.141ZM1178.92,684.953C1174.39,684.953 1169.67,683.79 1165.28,681.589C1152.75,675.316 1146.59,662.825 1151.27,653.15C1154.14,647.202 1160.59,643.65 1168.5,643.65C1173.03,643.65 1177.75,644.813 1182.14,647.015C1194.67,653.287 1200.82,665.779 1196.15,675.454C1193.27,681.402 1186.83,684.953 1178.92,684.953Z" style="fill:rgb(206,165,196);fill-rule:nonzero;"/>
        <path d="M990.898,569.863C1000.03,572.637 1005.91,580.13 1004.04,586.605C1002.17,593.076 993.26,596.076 984.133,593.301C975.004,590.528 969.117,583.034 970.986,576.561C972.855,570.088 981.77,567.091 990.898,569.863Z" style="fill:rgb(149,88,129);fill-rule:nonzero;"/>
        <path d="M984.121,573.403C979.656,573.403 976.145,575.182 975.379,577.829C974.371,581.322 978.264,586.739 985.461,588.926C987.289,589.481 989.121,589.763 990.908,589.763C995.373,589.763 998.885,587.984 999.648,585.336C1000.66,581.843 996.766,576.426 989.568,574.239C987.742,573.684 985.908,573.403 984.121,573.403ZM990.908,598.909C988.219,598.909 985.492,598.494 982.803,597.677C971.113,594.125 963.994,584.293 966.592,575.292C968.527,568.588 975.408,564.257 984.121,564.257C986.811,564.257 989.537,564.671 992.227,565.488C1003.92,569.04 1011.04,578.873 1008.44,587.874C1006.5,594.577 999.621,598.909 990.908,598.909Z" style="fill:rgb(206,165,196);fill-rule:nonzero;"/>
        <path d="M1004.39,857C1065.14,809.614 1158.35,785.653 1200,782.195L1200,722.604C1179.21,725.043 1141.31,731.004 1098.55,744.95C1061.06,757.179 1027.54,773.061 998.92,792.155C962.494,816.46 933.941,846.047 914.059,880.095C864.959,964.166 872.125,1071.08 928.893,1200L954.355,1200C898.545,1055.8 932.486,913.083 1004.39,857Z" style="fill:rgb(172,106,148);fill-rule:nonzero;"/>
        <path d="M1020.57,888.8C1029.41,882.039 1039.33,879.9 1049.81,874.41C1060.82,868.641 1069.62,857.21 1081.5,852.71C1096.14,847.165 1117.62,851.131 1131.97,847.283C1143.21,844.27 1153.46,831.113 1163.54,829C1179.14,825.729 1189.78,827.863 1200,826.374L1200,782.195C1190.93,782.948 1179.69,773.415 1166.06,775.333C1152.14,777.292 1136.54,793.955 1120,797.667C1103.12,801.456 1083.32,793.549 1066,799.739C1052.11,804.704 1042.83,823.82 1030,830.665C1019.37,836.333 986.787,843.854 977.627,850.999C968.643,858.007 967.301,872.954 960.334,882.666C954.053,891.422 941.775,894.63 937.311,905.367C928.334,926.958 938.91,935.702 935.801,948.999C932.014,965.201 916.678,975.813 915.666,994.212C915.168,1003.25 922.547,1012.97 919.666,1022C914,1039.76 920.891,1049.57 922.328,1063.84C924.369,1084.09 926.607,1100.4 931.221,1121.48C933.168,1130.38 920.572,1138.29 925.65,1157C929,1169.33 942.91,1171.47 944.994,1178C946.77,1183.56 945.779,1188.07 947.666,1192C948.906,1194.58 952.945,1196.35 954.355,1200L975.176,1200C972.76,1193.08 981.998,1189.67 979.795,1177.67C977.604,1165.74 968.541,1162.53 962.824,1155.12C960.613,1152.25 958.863,1149.32 958.115,1146.22C945.619,1094.37 944.582,1041.54 954.666,997.333C957.727,983.907 965.422,971.022 970.408,959.035C974.275,949.735 972.719,940.915 977.738,932.646C983.141,923.744 996.211,918.482 1002.94,910.95C1009.24,903.903 1013.11,894.495 1020.57,888.8Z" style="fill:rgb(149,88,129);fill-rule:nonzero;"/>
        <path d="M1069.51,810.557C1079.5,806.401 1089.99,808.751 1092.92,815.806C1095.86,822.862 1090.13,831.952 1080.13,836.112C1070.14,840.267 1059.65,837.917 1056.72,830.86C1053.79,823.805 1059.51,814.716 1069.51,810.557Z" style="fill:rgb(149,88,129);fill-rule:nonzero;"/>
        <path d="M1079.41,813.691C1076.84,813.691 1074.11,814.265 1071.5,815.348C1063.66,818.61 1059.94,825.092 1061.51,828.867C1062.56,831.402 1065.91,832.977 1070.23,832.977C1072.8,832.977 1075.54,832.404 1078.14,831.32C1085.98,828.058 1089.7,821.574 1088.13,817.798C1087.08,815.266 1083.74,813.691 1079.41,813.691ZM1070.23,843.354C1061.63,843.354 1054.62,839.33 1051.93,832.853C1047.83,823.004 1054.68,811.105 1067.52,805.766C1071.38,804.162 1075.49,803.314 1079.41,803.314C1088.01,803.314 1095.02,807.337 1097.71,813.812C1101.81,823.663 1094.96,835.563 1082.13,840.903C1078.27,842.507 1074.16,843.354 1070.23,843.354Z" style="fill:rgb(206,165,196);fill-rule:nonzero;"/>
        <path d="M1039.25,850.42C1048.24,846.682 1057.67,848.796 1060.31,855.143C1062.95,861.49 1057.8,869.668 1048.81,873.41C1039.81,877.148 1030.38,875.034 1027.74,868.686C1025.1,862.338 1030.25,854.162 1039.25,850.42Z" style="fill:rgb(149,88,129);fill-rule:nonzero;"/>
        <path d="M1048.16,853.24C1045.84,853.24 1043.38,853.756 1041.04,854.73C1033.98,857.666 1030.64,863.496 1032.05,866.893C1033,869.174 1036.01,870.59 1039.9,870.59C1042.21,870.59 1044.67,870.074 1047.01,869.1C1054.07,866.164 1057.41,860.332 1056,856.935C1055.05,854.657 1052.05,853.24 1048.16,853.24ZM1039.9,879.926C1032.16,879.926 1025.85,876.306 1023.43,870.478C1019.75,861.618 1025.91,850.915 1037.45,846.11C1040.92,844.667 1044.63,843.904 1048.16,843.904C1055.89,843.904 1062.2,847.523 1064.62,853.349C1068.3,862.211 1062.15,872.916 1050.6,877.72C1047.13,879.163 1043.43,879.926 1039.9,879.926Z" style="fill:rgb(206,165,196);fill-rule:nonzero;"/>
        <path d="M987.066,856.5C995.215,851.166 1004.87,851.504 1008.64,857.254C1012.41,863.006 1008.85,871.994 1000.71,877.331C992.557,882.664 982.896,882.328 979.133,876.574C975.365,870.824 978.918,861.838 987.066,856.5Z" style="fill:rgb(149,88,129);fill-rule:nonzero;"/>
        <path d="M998.916,857.379C995.906,857.379 992.605,858.453 989.623,860.405C986.527,862.434 984.104,865.238 982.973,868.099C982.436,869.454 981.732,872.025 983.037,874.016C984.051,875.565 986.17,876.452 988.855,876.452C991.865,876.452 995.166,875.377 998.148,873.425C1004.54,869.239 1006.75,862.89 1004.74,859.81C1003.72,858.266 1001.6,857.379 998.916,857.379ZM988.855,885.788C982.963,885.788 977.994,883.361 975.227,879.13C972.59,875.105 972.248,869.833 974.289,864.666C976.141,859.987 979.77,855.7 984.51,852.595C988.994,849.659 994.111,848.042 998.916,848.042C1004.81,848.042 1009.78,850.467 1012.55,854.694C1017.8,862.728 1013.72,874.385 1003.26,881.236C998.777,884.172 993.662,885.788 988.855,885.788Z" style="fill:rgb(206,165,196);fill-rule:nonzero;"/>
        <path d="M992.395,898.079C998.432,893.432 1005.59,893.727 1008.38,898.736C1011.17,903.747 1008.54,911.578 1002.5,916.227C996.461,920.873 989.305,920.58 986.514,915.568C983.723,910.559 986.355,902.729 992.395,898.079Z" style="fill:rgb(149,88,129);fill-rule:nonzero;"/>
        <path d="M1001.17,898.528C999.102,898.528 996.795,899.424 994.682,901.052C989.75,904.85 988.145,910.789 989.791,913.743C990.727,915.425 992.443,915.777 993.719,915.777C995.791,915.777 998.098,914.881 1000.21,913.254C1005.14,909.457 1006.75,903.517 1005.1,900.561C1004.17,898.881 1002.45,898.528 1001.17,898.528ZM993.719,923.278C989.141,923.278 985.32,921.134 983.236,917.393C979.521,910.725 982.539,900.936 990.105,895.107C993.525,892.476 997.455,891.026 1001.17,891.026C1005.75,891.026 1009.57,893.171 1011.66,896.91C1015.37,903.584 1012.35,913.373 1004.79,919.198C1001.37,921.83 997.438,923.278 993.719,923.278Z" style="fill:rgb(206,165,196);fill-rule:nonzero;"/>
        <path d="M951.234,910.64C956.939,904.687 964.643,903.84 968.445,908.746C972.244,913.654 970.699,922.461 964.994,928.415C959.287,934.367 951.582,935.217 947.783,930.308C943.984,925.4 945.527,916.596 951.234,910.64Z" style="fill:rgb(149,88,129);fill-rule:nonzero;"/>
        <path d="M961.715,909.615C959.287,909.615 956.465,911.048 954.164,913.448C949.504,918.313 948.752,924.929 950.992,927.822C951.824,928.896 953.008,929.44 954.512,929.44C956.939,929.44 959.764,928.007 962.064,925.605C966.725,920.742 967.477,914.126 965.234,911.23C964.404,910.159 963.221,909.615 961.715,909.615ZM954.512,937.559C950.48,937.559 946.951,935.865 944.574,932.792C939.516,926.259 941.152,915.295 948.303,907.832C952.16,903.806 957.049,901.497 961.715,901.497C965.744,901.497 969.273,903.188 971.654,906.26C976.713,912.797 975.074,923.761 967.926,931.223C964.064,935.249 959.176,937.559 954.512,937.559Z" style="fill:rgb(206,165,196);fill-rule:nonzero;"/>
        <path d="M958.334,948.892C964.039,942.938 971.744,942.092 975.545,946.998C979.344,951.906 977.799,960.713 972.096,966.667C966.389,972.619 958.684,973.469 954.885,968.56C951.084,963.652 952.629,954.848 958.334,948.892Z" style="fill:rgb(149,88,129);fill-rule:nonzero;"/>
        <path d="M968.814,947.867C966.389,947.867 963.564,949.3 961.266,951.7C956.604,956.565 955.854,963.181 958.094,966.074C958.924,967.148 960.107,967.692 961.611,967.692C964.039,967.692 966.863,966.259 969.166,963.857C973.824,958.994 974.576,952.378 972.336,949.482C971.506,948.411 970.32,947.867 968.814,947.867ZM961.611,975.811C957.582,975.811 954.053,974.117 951.674,971.044C946.615,964.511 948.254,953.547 955.404,946.084C959.262,942.058 964.15,939.749 968.814,939.749C972.844,939.749 976.373,941.44 978.754,944.512C983.813,951.049 982.176,962.013 975.025,969.475C971.166,973.501 966.277,975.811 961.611,975.811Z" style="fill:rgb(206,165,196);fill-rule:nonzero;"/>
        <path d="M925.9,989.246C928.689,981.487 935.383,977.579 940.852,980.514C946.318,983.451 948.49,992.125 945.703,999.885C942.91,1007.64 936.219,1011.55 930.752,1008.62C925.283,1005.68 923.111,997.009 925.9,989.246Z" style="fill:rgb(149,88,129);fill-rule:nonzero;"/>
        <path d="M937.023,983.597C934.209,983.597 931.205,986.484 929.719,990.619C927.441,996.96 929.447,1003.31 932.672,1005.04C935.908,1006.78 940.041,1003.63 941.883,998.511C944.16,992.172 942.154,985.822 938.93,984.09C938.313,983.759 937.689,983.597 937.023,983.597ZM934.582,1013.65C932.568,1013.65 930.633,1013.16 928.83,1012.19C921.551,1008.28 918.586,997.601 922.08,987.874C924.787,980.344 930.652,975.479 937.023,975.479C939.033,975.479 940.967,975.97 942.77,976.938C950.053,980.849 953.018,991.531 949.523,1001.26C946.813,1008.79 940.949,1013.65 934.582,1013.65Z" style="fill:rgb(206,165,196);fill-rule:nonzero;"/>
        <path d="M931.783,1029.91C934.572,1022.15 941.266,1018.25 946.734,1021.18C952.203,1024.12 954.375,1032.79 951.586,1040.55C948.795,1048.31 942.102,1052.22 936.635,1049.28C931.166,1046.35 928.994,1037.68 931.783,1029.91Z" style="fill:rgb(149,88,129);fill-rule:nonzero;"/>
        <path d="M942.906,1024.26C940.092,1024.26 937.09,1027.15 935.604,1031.29C933.326,1037.63 935.33,1043.98 938.555,1045.71C941.791,1047.44 945.926,1044.29 947.768,1039.18C950.045,1032.84 948.039,1026.49 944.814,1024.76C944.197,1024.43 943.572,1024.26 942.906,1024.26ZM940.465,1054.32C938.453,1054.32 936.518,1053.83 934.713,1052.86C927.434,1048.95 924.469,1038.27 927.963,1028.54C930.67,1021.01 936.535,1016.15 942.906,1016.15C944.918,1016.15 946.852,1016.64 948.654,1017.6C955.936,1021.52 958.9,1032.2 955.406,1041.92C952.697,1049.46 946.832,1054.32 940.465,1054.32Z" style="fill:rgb(206,165,196);fill-rule:nonzero;"/>
        <path d="M931.963,1148.87C931.939,1142.22 936.467,1137.42 942.072,1138.14C947.68,1138.86 952.242,1144.84 952.266,1151.49C952.285,1158.14 947.76,1162.94 942.154,1162.22C936.547,1161.49 931.984,1155.52 931.963,1148.87Z" style="fill:rgb(149,88,129);fill-rule:nonzero;"/>
        <path d="M940.967,1141.55C939.352,1141.55 938.219,1142.35 937.553,1143.01C936.205,1144.37 935.436,1146.5 935.445,1148.86C935.461,1153.73 938.736,1158.27 942.6,1158.76C942.822,1158.79 943.045,1158.81 943.264,1158.81C944.877,1158.81 946.008,1158.01 946.672,1157.35C948.021,1155.99 948.791,1153.86 948.783,1151.5C948.766,1146.63 945.488,1142.09 941.625,1141.59C941.406,1141.56 941.184,1141.55 940.967,1141.55ZM943.264,1165.77C942.75,1165.77 942.227,1165.74 941.709,1165.67C934.318,1164.72 928.508,1157.34 928.48,1148.88C928.465,1144.62 929.936,1140.79 932.619,1138.1C935.246,1135.46 938.85,1134.21 942.516,1134.68C949.906,1135.64 955.717,1143.01 955.748,1151.47C955.76,1155.74 954.289,1159.57 951.604,1162.26C949.348,1164.52 946.387,1165.77 943.264,1165.77Z" style="fill:rgb(206,165,196);fill-rule:nonzero;"/>
        <path d="M953.65,1178.58C953.627,1171.93 958.154,1167.13 963.76,1167.85C969.367,1168.57 973.93,1174.55 973.953,1181.2C973.973,1187.85 969.447,1192.65 963.842,1191.93C958.234,1191.21 953.672,1185.23 953.65,1178.58Z" style="fill:rgb(149,88,129);fill-rule:nonzero;"/>
        <path d="M962.654,1171.26C961.039,1171.26 959.906,1172.06 959.24,1172.72C957.893,1174.08 957.123,1176.21 957.133,1178.57C957.148,1183.44 960.424,1187.98 964.287,1188.47C964.51,1188.5 964.732,1188.52 964.951,1188.52C966.564,1188.52 967.695,1187.72 968.359,1187.06C969.709,1185.7 970.479,1183.57 970.471,1181.21C970.453,1176.34 967.176,1171.8 963.313,1171.3C963.094,1171.27 962.871,1171.26 962.654,1171.26ZM964.951,1195.48C964.438,1195.48 963.914,1195.45 963.396,1195.38C956.006,1194.43 950.195,1187.05 950.168,1178.59C950.152,1174.33 951.623,1170.5 954.307,1167.81C956.934,1165.17 960.537,1163.92 964.203,1164.4C971.594,1165.35 977.404,1172.73 977.436,1181.19C977.447,1185.45 975.977,1189.28 973.291,1191.97C971.035,1194.24 968.074,1195.48 964.951,1195.48Z" style="fill:rgb(206,165,196);fill-rule:nonzero;"/>
        <path d="M1120.05,820.339C1129.8,816.283 1140.03,818.576 1142.9,825.462C1145.76,832.348 1140.17,841.219 1130.42,845.279C1120.66,849.334 1110.43,847.041 1107.57,840.153C1104.7,833.268 1110.29,824.398 1120.05,820.339Z" style="fill:rgb(149,88,129);fill-rule:nonzero;"/>
        <path d="M1129.71,823.398C1127.21,823.398 1124.54,823.957 1121.99,825.015C1114.34,828.199 1110.71,834.524 1112.24,838.208C1113.27,840.683 1116.53,842.219 1120.75,842.219C1123.26,842.219 1125.93,841.66 1128.47,840.604C1136.13,837.418 1139.75,831.091 1138.22,827.405C1137.19,824.935 1133.93,823.398 1129.71,823.398ZM1120.75,852.347C1112.36,852.347 1105.52,848.42 1102.89,842.098C1098.89,832.487 1105.57,820.875 1118.1,815.663C1121.87,814.098 1125.88,813.271 1129.71,813.271C1138.1,813.271 1144.94,817.196 1147.57,823.516C1151.57,833.129 1144.89,844.741 1132.36,849.954C1128.6,851.52 1124.58,852.347 1120.75,852.347Z" style="fill:rgb(206,165,196);fill-rule:nonzero;"/>
        <path d="M1162.74,786.649C1172.98,784.051 1182.77,787.802 1184.6,795.031C1186.44,802.258 1179.62,810.226 1169.38,812.829C1159.14,815.428 1149.35,811.676 1147.52,804.446C1145.68,797.218 1152.49,789.252 1162.74,786.649Z" style="fill:rgb(149,88,129);fill-rule:nonzero;"/>
        <path d="M1169.21,790.89C1167.49,790.89 1165.73,791.114 1163.98,791.558C1155.95,793.599 1151.44,799.332 1152.43,803.2C1153.23,806.373 1157.54,808.589 1162.91,808.589C1164.63,808.589 1166.39,808.364 1168.14,807.921C1176.17,805.878 1180.68,800.145 1179.7,796.277C1178.89,793.105 1174.58,790.89 1169.21,790.89ZM1162.91,818.717C1152.75,818.717 1144.59,813.482 1142.61,805.691C1140.05,795.604 1148.34,785.082 1161.49,781.741C1164.05,781.091 1166.65,780.762 1169.21,780.762C1179.37,780.762 1187.53,785.994 1189.51,793.783C1192.07,803.873 1183.78,814.395 1170.63,817.737C1168.07,818.388 1165.47,818.717 1162.91,818.717Z" style="fill:rgb(206,165,196);fill-rule:nonzero;"/>
        <path d="M568.819,1067.38C507.519,1032.59 470.642,989.588 469.417,988.414C463.507,982.748 463.309,973.364 468.974,967.455C474.64,961.545 484.023,961.348 489.933,967.012C490.196,967.265 845.873,1286.06 1171.49,831.192C1184.9,828.763 1200,826.373 1200,826.373L1200,932.168C1180.6,954.896 1158.39,983.135 1080.06,1050.07C1067.86,1060.5 1054.54,1070.6 1040.14,1080.06C1028.9,1087.46 1012.54,1085.68 999.998,1092.15C988.111,1098.28 980.109,1112.71 967.086,1117.75C949.813,1124.44 930.244,1120.6 911.025,1124.87C817.834,1145.55 703.436,1143.78 568.819,1067.38Z" style="fill:rgb(172,106,148);fill-rule:nonzero;"/>
        <path d="M942.65,1093C1113.32,1020.93 1199.83,853.036 1200,852.714L1200,826.373C1200,826.373 1187.75,826.373 1173.72,827.479C848.105,1282.35 490.196,967.265 489.933,967.012C484.023,961.348 474.64,961.545 468.974,967.455C463.309,973.364 463.507,982.748 469.417,988.414C470.254,989.217 487.774,1009.59 518.375,1033.52C613.086,1074.04 815.309,1146.78 942.65,1093Z" style="fill:rgb(172,106,148);fill-rule:nonzero;"/>
        <path d="M1080.06,1050.07C1097.2,1035.43 1126.4,1035.67 1138.72,1024.38C1151.85,1012.36 1147.81,989.011 1156.78,979.982C1177.89,958.744 1189.37,944.628 1200,932.168L1200,852.714C1199.95,852.807 1185.52,855.056 1168.34,874.683C1152.5,892.777 1161.77,909.83 1152.34,922.178C1143.92,933.191 1127,929 1113.74,943.808C1096.64,962.911 1103.03,979 1093.69,988.334C1084.05,997.968 1061.06,995.14 1050.55,1004.33C1039.37,1014.12 1040.59,1035.89 1028.05,1044.95C1015.38,1054.1 993.438,1049.84 978.998,1058C965.035,1065.89 958.637,1086.25 942.65,1093C931.184,1097.84 913.705,1089.05 901.248,1092.15C885.152,1096.15 873.785,1111.48 856.49,1112.9C840.48,1114.21 825.611,1103.85 808.998,1103.25C797.619,1102.84 784.604,1112.66 773.104,1111.47C762.422,1110.37 752.676,1097.94 741.998,1096.24C730.441,1094.4 717.957,1103.26 706.531,1100.82C693.658,1098.07 687.332,1085.33 669.486,1083.8C658.615,1082.87 647.473,1085.71 637.307,1082.51C627.563,1079.44 622.223,1068.74 612.998,1065.2C604.664,1062 598.072,1071.13 593.332,1069.33C588.85,1067.63 587.208,1060.41 582.743,1059.01C554.749,1050.25 531.673,1040.62 518.375,1033.52C532.515,1044.57 549.446,1056.39 568.819,1067.38C573.142,1069.83 575.459,1074.89 579.743,1077.36C586.998,1081.54 596.183,1082.11 603.324,1086.07C613.668,1091.79 623.893,1098.11 633.998,1102.5C643.9,1106.8 653.697,1108.33 663.365,1111.94C675.699,1116.54 686.666,1122.81 698.613,1126.34C709.805,1129.65 722,1130.27 732.846,1132.69C746.215,1135.66 760.164,1142.54 772.998,1144.25C787.75,1146.22 801.303,1142.83 815.334,1143.27C829.25,1143.7 845.998,1154.43 859.188,1153.5C878.527,1152.14 895.262,1136.23 912.998,1132.33C930.479,1128.49 952.621,1137.37 968.498,1131.5C983.543,1125.94 989.102,1106 1002.66,1099C1018.87,1090.64 1044.03,1104.29 1064.82,1085.66C1074.54,1076.95 1070.68,1058.09 1080.06,1050.07Z" style="fill:rgb(149,88,129);fill-rule:nonzero;"/>
        <path d="M581.877,1068.13C585.562,1069.85 587.593,1073.37 586.416,1075.99C585.234,1078.61 581.295,1079.33 577.607,1077.61C573.924,1075.9 571.892,1072.38 573.07,1069.76C574.249,1067.14 578.19,1066.41 581.877,1068.13Z" style="fill:rgb(149,88,129);fill-rule:nonzero;"/>
        <path d="M577.869,1069.15C576.375,1069.15 575.245,1069.67 574.848,1070.56C574.211,1071.97 575.527,1074.49 578.432,1075.85C579.484,1076.34 580.585,1076.6 581.619,1076.6C583.111,1076.6 584.24,1076.07 584.638,1075.19C585.274,1073.77 583.958,1071.25 581.053,1069.9C580.003,1069.41 578.902,1069.15 577.869,1069.15ZM581.619,1080.5C580.02,1080.5 578.348,1080.11 576.783,1079.38C572.066,1077.18 569.654,1072.6 571.292,1068.96C572.337,1066.64 574.796,1065.25 577.869,1065.25C579.467,1065.25 581.138,1065.63 582.701,1066.36C587.42,1068.57 589.832,1073.15 588.193,1076.79C587.146,1079.11 584.689,1080.5 581.619,1080.5Z" style="fill:rgb(206,165,196);fill-rule:nonzero;"/>
        <path d="M611.422,1071.98C615.6,1073.93 617.906,1077.93 616.57,1080.9C615.23,1083.87 610.76,1084.7 606.576,1082.74C602.396,1080.79 600.09,1076.8 601.428,1073.83C602.766,1070.86 607.236,1070.03 611.422,1071.98Z" style="fill:rgb(149,88,129);fill-rule:nonzero;"/>
        <path d="M606.873,1073.14C605.176,1073.14 603.895,1073.73 603.443,1074.74C602.723,1076.34 604.215,1079.2 607.512,1080.74C608.705,1081.29 609.957,1081.59 611.129,1081.59C612.82,1081.59 614.102,1080.99 614.553,1079.99C615.275,1078.38 613.781,1075.53 610.484,1073.99C609.295,1073.43 608.045,1073.14 606.873,1073.14ZM611.129,1086.01C609.314,1086.01 607.416,1085.58 605.641,1084.75C600.289,1082.25 597.551,1077.06 599.41,1072.92C600.597,1070.29 603.387,1068.71 606.873,1068.71C608.686,1068.71 610.582,1069.15 612.355,1069.98C617.711,1072.48 620.447,1077.67 618.586,1081.8C617.4,1084.44 614.611,1086.01 611.129,1086.01Z" style="fill:rgb(206,165,196);fill-rule:nonzero;"/>
        <path d="M637.027,1089.51C642.248,1091.95 645.133,1096.94 643.461,1100.66C641.787,1104.38 636.199,1105.4 630.971,1102.96C625.748,1100.53 622.865,1095.54 624.535,1091.82C626.207,1088.11 631.797,1087.08 637.027,1089.51Z" style="fill:rgb(149,88,129);fill-rule:nonzero;"/>
        <path d="M631.342,1090.96C629.223,1090.96 627.619,1091.71 627.057,1092.96C626.154,1094.96 628.02,1098.54 632.141,1100.46C633.633,1101.15 635.195,1101.52 636.66,1101.52C638.775,1101.52 640.377,1100.77 640.941,1099.52C641.842,1097.52 639.977,1093.94 635.855,1092.02C634.369,1091.32 632.807,1090.96 631.342,1090.96ZM636.66,1107.05C634.393,1107.05 632.021,1106.5 629.801,1105.47C623.111,1102.35 619.691,1095.86 622.014,1090.69C623.498,1087.39 626.984,1085.43 631.342,1085.43C633.607,1085.43 635.977,1085.97 638.195,1087.01C644.887,1090.14 648.307,1096.63 645.982,1101.79C644.498,1105.08 641.014,1107.05 636.66,1107.05Z" style="fill:rgb(206,165,196);fill-rule:nonzero;"/>
        <path d="M672.285,1091.83C678.328,1094.1 681.984,1099.42 680.441,1103.71C678.895,1108.01 672.742,1109.65 666.691,1107.38C660.645,1105.11 656.99,1099.79 658.533,1095.49C660.076,1091.2 666.23,1089.56 672.285,1091.83Z" style="fill:rgb(149,88,129);fill-rule:nonzero;"/>
        <path d="M666.85,1093.9C664.143,1093.9 662.023,1094.94 661.447,1096.54C660.615,1098.86 663.01,1102.69 667.779,1104.48C669.219,1105.02 670.725,1105.3 672.133,1105.3C674.832,1105.3 676.951,1104.27 677.527,1102.66C678.359,1100.35 675.963,1096.52 671.195,1094.72C669.762,1094.19 668.256,1093.9 666.85,1093.9ZM672.133,1111.5C669.959,1111.5 667.762,1111.08 665.604,1110.28C657.859,1107.37 653.473,1100.42 655.617,1094.45C657.111,1090.29 661.416,1087.71 666.85,1087.71C669.021,1087.71 671.215,1088.12 673.371,1088.92C681.115,1091.84 685.5,1098.79 683.355,1104.76C681.861,1108.92 677.561,1111.5 672.133,1111.5Z" style="fill:rgb(206,165,196);fill-rule:nonzero;"/>
        <path d="M704.775,1109.55C711.67,1110.81 716.604,1115.78 715.787,1120.67C714.971,1125.56 708.717,1128.49 701.816,1127.24C694.918,1125.99 689.986,1121.02 690.801,1116.13C691.617,1111.25 697.869,1108.3 704.775,1109.55Z" style="fill:rgb(149,88,129);fill-rule:nonzero;"/>
        <path d="M701.621,1112.63C697.729,1112.63 694.502,1114.37 694.115,1116.69C693.676,1119.32 696.977,1122.95 702.414,1123.93C703.273,1124.09 704.135,1124.17 704.979,1124.17C708.928,1124.17 712.08,1122.46 712.473,1120.11C712.914,1117.48 709.613,1113.85 704.174,1112.86C703.322,1112.71 702.461,1112.63 701.621,1112.63ZM704.979,1130.89C703.734,1130.89 702.469,1130.78 701.217,1130.55C692.385,1128.95 686.352,1122.38 687.484,1115.58C688.438,1109.88 694.25,1105.91 701.621,1105.91C702.861,1105.91 704.123,1106.02 705.373,1106.25C714.209,1107.85 720.238,1114.43 719.104,1121.22C718.15,1126.91 712.342,1130.89 704.979,1130.89Z" style="fill:rgb(206,165,196);fill-rule:nonzero;"/>
        <path d="M740.979,1104.57C747.873,1105.83 752.809,1110.8 751.992,1115.69C751.174,1120.58 744.922,1123.52 738.02,1122.26C731.123,1121.02 726.189,1116.04 727.004,1111.15C727.82,1106.27 734.074,1103.33 740.979,1104.57Z" style="fill:rgb(149,88,129);fill-rule:nonzero;"/>
        <path d="M737.826,1107.65C733.934,1107.65 730.707,1109.39 730.32,1111.71C729.879,1114.35 733.18,1117.97 738.619,1118.96C739.479,1119.11 740.34,1119.19 741.182,1119.19C745.131,1119.19 748.283,1117.48 748.676,1115.13C749.117,1112.5 745.816,1108.87 740.377,1107.88C739.525,1107.73 738.666,1107.65 737.826,1107.65ZM741.182,1125.91C739.938,1125.91 738.672,1125.8 737.42,1125.57C728.588,1123.97 722.557,1117.4 723.689,1110.6C724.641,1104.9 730.455,1100.93 737.826,1100.93C739.066,1100.93 740.328,1101.04 741.576,1101.27C750.412,1102.87 756.441,1109.45 755.307,1116.24C754.355,1121.94 748.547,1125.91 741.182,1125.91Z" style="fill:rgb(206,165,196);fill-rule:nonzero;"/>
        <path d="M774.736,1125.64C782.832,1127.11 788.625,1132.95 787.666,1138.69C786.707,1144.43 779.365,1147.88 771.262,1146.41C763.164,1144.94 757.373,1139.1 758.328,1133.36C759.287,1127.63 766.629,1124.17 774.736,1125.64Z" style="fill:rgb(149,88,129);fill-rule:nonzero;"/>
        <path d="M771.035,1129.25C766.465,1129.25 762.676,1131.3 762.221,1134.02C761.705,1137.11 765.58,1141.37 771.965,1142.53C772.973,1142.71 773.984,1142.8 774.975,1142.8C779.611,1142.8 783.313,1140.8 783.773,1138.04C784.291,1134.94 780.418,1130.68 774.031,1129.52C773.031,1129.34 772.021,1129.25 771.035,1129.25ZM774.975,1150.69C773.514,1150.69 772.029,1150.56 770.559,1150.29C760.189,1148.42 753.105,1140.7 754.436,1132.72C755.555,1126.03 762.381,1121.36 771.035,1121.36C772.49,1121.36 773.973,1121.49 775.438,1121.75C785.813,1123.64 792.893,1131.37 791.559,1139.34C790.441,1146.02 783.621,1150.69 774.975,1150.69Z" style="fill:rgb(206,165,196);fill-rule:nonzero;"/>
        <path d="M810.551,1112.78C818.775,1113.05 825.365,1117.97 825.262,1123.79C825.158,1129.61 818.404,1134.1 810.174,1133.84C801.947,1133.58 795.359,1128.66 795.461,1122.84C795.564,1117.03 802.316,1112.53 810.551,1112.78Z" style="fill:rgb(149,88,129);fill-rule:nonzero;"/>
        <path d="M809.887,1116.72C804.266,1116.72 799.467,1119.56 799.406,1122.91C799.352,1126.05 803.811,1129.69 810.295,1129.89C810.484,1129.9 810.67,1129.9 810.854,1129.9C816.465,1129.9 821.256,1127.07 821.316,1123.71C821.371,1120.58 816.912,1116.94 810.424,1116.73C810.248,1116.72 810.066,1116.72 809.887,1116.72ZM810.854,1137.8C810.586,1137.8 810.318,1137.79 810.049,1137.78C799.516,1137.46 791.373,1130.86 791.516,1122.77C791.658,1114.75 800.129,1108.53 810.672,1108.84C821.211,1109.18 829.352,1115.78 829.207,1123.86C829.068,1131.67 821.006,1137.8 810.854,1137.8Z" style="fill:rgb(206,165,196);fill-rule:nonzero;"/>
        <path d="M858.047,1121.56C867.662,1120.81 875.977,1125.69 876.607,1132.47C877.24,1139.27 869.953,1145.38 860.33,1146.14C850.713,1146.9 842.4,1142.02 841.768,1135.23C841.135,1128.44 848.42,1122.33 858.047,1121.56Z" style="fill:rgb(149,88,129);fill-rule:nonzero;"/>
        <path d="M860,1126.11C859.473,1126.11 858.938,1126.13 858.408,1126.17C853.965,1126.53 850.006,1128.29 847.826,1130.88C846.74,1132.17 846.25,1133.49 846.373,1134.8C846.723,1138.54 852.094,1141.59 858.348,1141.59C858.883,1141.59 859.424,1141.57 859.963,1141.53C864.412,1141.17 868.369,1139.42 870.549,1136.83C871.635,1135.54 872.125,1134.22 872.002,1132.9C871.652,1129.16 866.27,1126.11 860,1126.11ZM858.348,1150.84C847.078,1150.84 837.969,1144.31 837.162,1135.66C836.811,1131.9 838.084,1128.09 840.744,1124.93C844.539,1120.41 850.711,1117.5 857.678,1116.95C858.455,1116.89 859.232,1116.86 860,1116.86C871.287,1116.86 880.408,1123.39 881.213,1132.05C881.564,1135.81 880.291,1139.62 877.627,1142.79C873.832,1147.3 867.66,1150.2 860.693,1150.75C859.916,1150.81 859.127,1150.84 858.348,1150.84Z" style="fill:rgb(206,165,196);fill-rule:nonzero;"/>
        <path d="M907.051,1100.48C916.668,1099.73 924.98,1104.61 925.613,1111.4C926.246,1118.19 918.959,1124.3 909.334,1125.06C899.719,1125.83 891.406,1120.94 890.771,1114.15C890.141,1107.37 897.426,1101.25 907.051,1100.48Z" style="fill:rgb(149,88,129);fill-rule:nonzero;"/>
        <path d="M909.004,1105.03C908.479,1105.03 907.943,1105.05 907.412,1105.09C902.969,1105.45 899.01,1107.21 896.83,1109.8C895.744,1111.09 895.256,1112.41 895.377,1113.72C895.727,1117.47 901.1,1120.51 907.354,1120.51C907.887,1120.51 908.43,1120.49 908.967,1120.45C913.418,1120.1 917.373,1118.34 919.553,1115.75C920.641,1114.46 921.129,1113.14 921.008,1111.83C920.658,1108.08 915.273,1105.03 909.004,1105.03ZM907.354,1129.77C896.082,1129.77 886.975,1123.24 886.166,1114.58C885.816,1110.82 887.088,1107.01 889.75,1103.85C893.543,1099.33 899.717,1096.43 906.684,1095.87C907.459,1095.81 908.238,1095.78 909.004,1095.78C920.293,1095.78 929.412,1102.31 930.219,1110.97C930.568,1114.73 929.295,1118.54 926.631,1121.71C922.836,1126.22 916.664,1129.12 909.699,1129.67C908.922,1129.73 908.131,1129.77 907.354,1129.77Z" style="fill:rgb(206,165,196);fill-rule:nonzero;"/>
        <path d="M953.992,1101.79C963.131,1098.7 972.389,1101.39 974.666,1107.81C976.945,1114.24 971.381,1121.95 962.238,1125.05C953.104,1128.16 943.846,1125.46 941.566,1119.03C939.289,1112.61 944.85,1104.89 953.992,1101.79Z" style="fill:rgb(149,88,129);fill-rule:nonzero;"/>
        <path d="M961.572,1105.13C959.561,1105.13 957.51,1105.48 955.475,1106.17C951.254,1107.6 947.85,1110.28 946.371,1113.33C945.637,1114.85 945.486,1116.25 945.926,1117.49C946.822,1120.02 950.328,1121.71 954.648,1121.71C956.662,1121.71 958.715,1121.36 960.75,1120.67C964.979,1119.24 968.383,1116.57 969.859,1113.52C970.598,1112 970.746,1110.6 970.307,1109.36C969.41,1106.83 965.898,1105.13 961.572,1105.13ZM954.648,1130.97C946.164,1130.97 939.48,1126.99 937.207,1120.58C935.945,1117.02 936.244,1113.01 938.047,1109.29C940.617,1103.99 945.887,1099.66 952.504,1097.41C955.502,1096.39 958.551,1095.88 961.572,1095.88C970.066,1095.88 976.754,1099.86 979.025,1106.27C980.287,1109.83 979.988,1113.84 978.184,1117.56C975.611,1122.86 970.34,1127.19 963.723,1129.43C960.73,1130.45 957.676,1130.97 954.648,1130.97Z" style="fill:rgb(206,165,196);fill-rule:nonzero;"/>
        <path d="M987.332,1065.67C996.543,1060.68 1006.95,1061.86 1010.57,1068.31C1014.19,1074.78 1009.66,1084.05 1000.44,1089.05C991.234,1094.06 980.83,1092.87 977.205,1086.41C973.586,1079.96 978.117,1070.68 987.332,1065.67Z" style="fill:rgb(149,88,129);fill-rule:nonzero;"/>
        <path d="M998.898,1067.6C995.938,1067.6 992.68,1068.48 989.725,1070.08C985.471,1072.4 982.32,1075.89 981.299,1079.42C980.791,1081.18 980.887,1082.71 981.586,1083.96C982.699,1085.94 985.424,1087.13 988.871,1087.13C991.832,1087.13 995.088,1086.24 998.041,1084.64C1002.3,1082.33 1005.46,1078.84 1006.47,1075.31C1006.98,1073.55 1006.89,1072.02 1006.19,1070.77C1005.07,1068.79 1002.35,1067.6 998.898,1067.6ZM988.871,1097.17C981.74,1097.17 975.74,1094.07 972.824,1088.87C970.818,1085.3 970.4,1080.95 971.646,1076.64C973.422,1070.49 978.264,1064.88 984.932,1061.25C989.4,1058.83 994.229,1057.55 998.898,1057.55C1006.04,1057.55 1012.04,1060.66 1014.95,1065.85C1016.96,1069.43 1017.38,1073.78 1016.13,1078.1C1014.35,1084.25 1009.51,1089.85 1002.84,1093.47C998.375,1095.89 993.545,1097.17 988.871,1097.17Z" style="fill:rgb(206,165,196);fill-rule:nonzero;"/>
        <path d="M1040.33,1059.18C1049.54,1054.18 1059.95,1055.36 1063.57,1061.82C1067.19,1068.28 1062.66,1077.56 1053.44,1082.56C1044.23,1087.56 1033.83,1086.38 1030.21,1079.92C1026.59,1073.47 1031.12,1064.18 1040.33,1059.18Z" style="fill:rgb(149,88,129);fill-rule:nonzero;"/>
        <path d="M1051.9,1061.11C1048.94,1061.11 1045.68,1061.99 1042.72,1063.59C1038.47,1065.9 1035.32,1069.4 1034.3,1072.93C1033.79,1074.69 1033.89,1076.22 1034.59,1077.47C1035.7,1079.45 1038.42,1080.64 1041.87,1080.64C1044.83,1080.64 1048.09,1079.75 1051.04,1078.15C1055.3,1075.84 1058.46,1072.35 1059.47,1068.82C1059.98,1067.05 1059.89,1065.53 1059.19,1064.28C1058.07,1062.29 1055.35,1061.11 1051.9,1061.11ZM1041.87,1090.68C1034.74,1090.68 1028.74,1087.58 1025.82,1082.38C1023.82,1078.8 1023.4,1074.46 1024.65,1070.15C1026.42,1063.99 1031.26,1058.39 1037.93,1054.76C1042.4,1052.34 1047.23,1051.06 1051.9,1051.06C1059.04,1051.06 1065.04,1054.17 1067.95,1059.36C1069.96,1062.94 1070.38,1067.29 1069.13,1071.61C1067.35,1077.76 1062.51,1083.36 1055.84,1086.98C1051.38,1089.4 1046.54,1090.68 1041.87,1090.68Z" style="fill:rgb(206,165,196);fill-rule:nonzero;"/>
        <path d="M1060.14,1013.5C1068.73,1007.5 1079.2,1007.5 1083.53,1013.5C1087.86,1019.52 1084.39,1029.25 1075.8,1035.25C1067.22,1041.26 1056.75,1041.26 1052.42,1035.25C1048.09,1029.25 1051.55,1019.51 1060.14,1013.5Z" style="fill:rgb(149,88,129);fill-rule:nonzero;"/>
        <path d="M1073.43,1014.02C1070.08,1014.02 1066.29,1015.33 1063.01,1017.62C1059.05,1020.39 1056.31,1024.22 1055.7,1027.85C1055.39,1029.65 1055.66,1031.16 1056.49,1032.32C1058.01,1034.42 1060.92,1034.74 1062.52,1034.74C1065.86,1034.74 1069.65,1033.43 1072.92,1031.14C1076.89,1028.36 1079.63,1024.54 1080.25,1020.92C1080.55,1019.11 1080.29,1017.6 1079.45,1016.44C1077.93,1014.34 1075.03,1014.02 1073.43,1014.02ZM1062.52,1044.79C1056.53,1044.79 1051.36,1042.38 1048.34,1038.19C1045.95,1034.86 1045.04,1030.59 1045.79,1026.17C1046.86,1019.85 1051.04,1013.74 1057.26,1009.38C1062.25,1005.89 1067.99,1003.97 1073.43,1003.97C1079.42,1003.97 1084.58,1006.38 1087.6,1010.57C1090,1013.9 1090.9,1018.17 1090.15,1022.6C1089.08,1028.91 1084.9,1035.02 1078.68,1039.37C1073.7,1042.86 1067.95,1044.79 1062.52,1044.79Z" style="fill:rgb(206,165,196);fill-rule:nonzero;"/>
        <path d="M1113.47,998.711C1122.06,992.712 1132.53,992.71 1136.86,998.716C1141.19,1004.73 1137.73,1014.46 1129.13,1020.47C1120.55,1026.48 1110.08,1026.48 1105.75,1020.47C1101.43,1014.46 1104.88,1004.73 1113.47,998.711Z" style="fill:rgb(149,88,129);fill-rule:nonzero;"/>
        <path d="M1126.76,999.235C1123.41,999.235 1119.62,1000.54 1116.35,1002.83C1112.38,1005.61 1109.64,1009.43 1109.03,1013.06C1108.72,1014.87 1108.99,1016.37 1109.83,1017.53C1111.34,1019.64 1114.25,1019.95 1115.85,1019.95C1119.2,1019.95 1122.99,1018.64 1126.25,1016.35C1130.23,1013.57 1132.96,1009.75 1133.58,1006.13C1133.89,1004.32 1133.62,1002.81 1132.78,1001.65C1131.27,999.549 1128.36,999.235 1126.76,999.235ZM1115.85,1030C1109.86,1030 1104.7,1027.59 1101.68,1023.41C1099.28,1020.08 1098.37,1015.81 1099.12,1011.38C1100.19,1005.07 1104.37,998.949 1110.59,994.596C1115.58,991.107 1121.33,989.188 1126.76,989.188C1132.75,989.188 1137.92,991.591 1140.93,995.78C1143.33,999.11 1144.24,1003.38 1143.49,1007.81C1142.41,1014.12 1138.23,1020.24 1132.01,1024.58C1127.03,1028.08 1121.29,1030 1115.85,1030Z" style="fill:rgb(206,165,196);fill-rule:nonzero;"/>
        <path d="M1122.8,950.3C1131.5,943.256 1142.65,942.459 1147.72,948.531C1152.79,954.61 1149.84,965.241 1141.14,972.294C1132.45,979.348 1121.29,980.141 1116.22,974.067C1111.16,967.995 1114.1,957.361 1122.8,950.3Z" style="fill:rgb(149,88,129);fill-rule:nonzero;"/>
        <path d="M1137.93,949.816C1134.11,949.816 1129.83,951.513 1126.17,954.471C1122.16,957.729 1119.53,962.013 1119.15,965.924C1118.96,967.873 1119.37,969.457 1120.34,970.63C1121.83,972.41 1124.25,972.784 1126.02,972.784C1129.83,972.784 1134.11,971.087 1137.75,968.128C1141.78,964.866 1144.41,960.587 1144.79,956.679C1144.98,954.729 1144.58,953.145 1143.6,951.969C1142.03,950.096 1139.37,949.816 1137.93,949.816ZM1126.02,983.517C1120.28,983.517 1115.34,981.382 1112.1,977.507C1109.3,974.143 1108.01,969.661 1108.47,964.887C1109.13,958.078 1113.12,951.243 1119.41,946.134C1124.95,941.651 1131.7,939.084 1137.93,939.084C1143.67,939.084 1148.61,941.219 1151.84,945.095C1154.64,948.459 1155.94,952.943 1155.47,957.72C1154.81,964.526 1150.81,971.358 1144.52,976.463C1139,980.944 1132.25,983.517 1126.02,983.517Z" style="fill:rgb(206,165,196);fill-rule:nonzero;"/>
        <path d="M1172.6,932.808C1181.3,925.764 1192.46,924.967 1197.52,931.039C1202.59,937.118 1199.64,947.749 1190.94,954.802C1182.25,961.855 1171.09,962.648 1166.02,956.575C1160.96,950.503 1163.9,939.869 1172.6,932.808Z" style="fill:rgb(149,88,129);fill-rule:nonzero;"/>
        <path d="M1187.73,932.324C1183.91,932.324 1179.63,934.021 1175.97,936.979C1171.96,940.237 1169.33,944.521 1168.96,948.432C1168.77,950.381 1169.17,951.965 1170.14,953.138C1171.63,954.918 1174.05,955.292 1175.82,955.292C1179.63,955.292 1183.91,953.595 1187.55,950.636C1191.58,947.374 1194.21,943.095 1194.59,939.187C1194.78,937.237 1194.38,935.652 1193.4,934.477C1191.83,932.604 1189.17,932.324 1187.73,932.324ZM1175.82,966.024C1170.08,966.024 1165.14,963.89 1161.9,960.015C1159.1,956.65 1157.81,952.169 1158.27,947.395C1158.93,940.586 1162.92,933.751 1169.21,928.642C1174.75,924.159 1181.5,921.592 1187.73,921.592C1192.57,921.592 1196.84,923.11 1200,925.91L1200,953.104C1198.41,955.219 1196.5,957.199 1194.32,958.971C1188.8,963.452 1182.05,966.024 1175.82,966.024Z" style="fill:rgb(206,165,196);fill-rule:nonzero;"/>
        <path d="M1191.95,882.049C1187.78,882.049 1182.79,884.903 1179.23,889.321C1175.99,893.353 1174.32,898.093 1174.78,901.997C1175,903.942 1175.73,905.406 1176.93,906.348C1177.91,907.115 1179.19,907.506 1180.72,907.506C1184.89,907.506 1189.88,904.651 1193.43,900.234C1196.67,896.199 1198.34,891.462 1197.89,887.561C1197.66,885.615 1196.94,884.151 1195.73,883.209C1194.75,882.438 1193.47,882.049 1191.95,882.049ZM1180.72,918.238C1176.79,918.238 1173.2,917.051 1170.32,914.805C1166.87,912.106 1164.67,907.997 1164.12,903.231C1163.33,896.437 1165.79,888.915 1170.87,882.595C1176.55,875.53 1184.43,871.316 1191.95,871.316C1194.87,871.316 1197.61,871.975 1200,873.238L1200,909.02C1194.52,914.833 1187.48,918.238 1180.72,918.238Z" style="fill:rgb(206,165,196);fill-rule:nonzero;"/>
        <path d="M811.666,339.667C809.461,343.02 795.748,361.75 796.476,375.467C798.066,382.172 801.691,385.7 806.863,385.004C821.748,383 819.811,351.546 811.666,339.667ZM1200,484.596C1182.25,441.214 1124.79,363.274 1064.84,315.142C1054.75,280.512 1026.73,287.722 1008.48,280.493C1001.7,277.806 995.039,275.809 988.57,274.606C972.908,271.696 958.371,270.633 944.98,270.93C940.609,271.026 936.376,269.857 932.268,268.688C927.341,267.286 922.593,265.884 917.998,266.666C907.732,268.412 898.271,277.752 889.797,280.712C861.445,290.616 843.203,305.485 835.609,313.053C850.609,329.853 858.022,350.766 856.978,374.516C855.805,401.238 836.313,422.397 810.631,424.826C798.918,425.935 787.297,422.86 777.904,416.171C767.76,408.948 760.717,398.034 757.537,384.609C754.633,372.351 757.535,357.296 766.162,339.864C769.221,333.682 778.199,319.908 782.498,313.5C761.783,305.079 736.26,300.069 736.137,300.062C729.973,299.676 725.308,294.865 725.725,289.312C726.143,283.759 731.443,280.997 737.621,279.918C757.119,276.516 801.037,287.71 803.307,288.86C820.166,271.308 884.713,198.327 995.484,204.452C1095.06,209.959 1180.12,295.728 1200,320.113L1200,484.596Z" style="fill:rgb(172,106,148);fill-rule:nonzero;"/>
        <path d="M984.498,286.981C999.998,292.5 1006.64,281.905 1014.46,283.713C1022.28,285.521 1029.73,291.807 1037.77,296.732C1048.78,303.478 1050.16,315.916 1061.19,325C1067.51,330.211 1080.06,327.896 1086.27,333.668C1090.96,338.028 1089.92,348.686 1094.5,353.291C1098.43,357.247 1107.01,359.052 1110.84,363.144C1118.13,370.941 1110.52,382.084 1120.55,394.395C1130,406 1145.46,401.249 1151.23,408.83C1155.96,415.038 1153.76,428.253 1158,434.31C1165.66,445.256 1180.16,446.799 1185.89,456.652C1191.85,466.915 1196.64,476.376 1200,484.596L1200,414.214C1198.49,410.642 1196.67,402.75 1190.43,396.405C1184.93,390.803 1176.61,391.695 1170.33,382.999C1166.75,378.036 1166.25,363.413 1161.33,358.666C1154.88,352.439 1144.82,349.049 1142.5,346.5C1136.45,339.867 1134.03,325.759 1127.45,318.826C1118.25,309.136 1109.74,311.678 1101.75,305.5C1095.08,300.34 1091.19,289.428 1083.9,284.809C1078.44,281.342 1072.3,281.572 1066.5,278.512C1058.74,274.417 1053.58,260.011 1045.25,256.826C1035.29,253.02 1024.74,259.183 1014,257C1005.96,255.367 997.4,249.8 988.943,249.25C980.164,248.679 971.236,252.54 962.85,253C954.744,253.444 946.773,249.598 938.678,250.5C931.283,251.325 922.393,258.951 915.748,260.75C908.271,262.775 902.443,260.662 895.498,263.354C889.863,265.54 884.752,272.616 879.498,275.168C874.098,277.792 866.719,276.126 861.748,279.067C857.6,281.523 856.828,287.367 852.998,290C849.953,292.093 844.566,291.105 841.732,293.286C833.953,299.275 827.988,307.558 821.928,313.918C797.961,339.07 788.139,365.439 797.977,379.743C797.363,378.51 796.859,377.083 796.477,375.467C795.748,361.75 809.461,343.021 811.666,339.667C815.996,332.333 824.707,323.905 831.32,317.32C834.018,314.631 846.332,317 855.764,312C861.559,308.927 857.617,301.23 861.248,299.25C864.455,297.501 868.92,302.148 872.498,300.25C876.604,298.074 877.197,293.513 881.998,291.5C887.299,289.278 890.334,297.556 902.334,295.219C913.561,293.032 913.166,280.512 918.498,280.512C925.971,280.512 926.666,288.77 938.678,288.77C952.527,288.77 954.135,276.266 962.85,276.75C971.76,277.245 975.113,283.64 984.498,286.981Z" style="fill:rgb(149,88,129);fill-rule:nonzero;"/>
        <path d="M1122.04,328.044C1128.77,334.596 1130.47,343.755 1125.84,348.503C1121.22,353.25 1112.02,351.787 1105.29,345.234C1098.57,338.682 1096.86,329.522 1101.49,324.775C1106.12,320.028 1115.31,321.492 1122.04,328.044Z" style="fill:rgb(149,88,129);fill-rule:nonzero;"/>
        <path d="M1108.71,326.488C1107.52,326.488 1105.86,326.735 1104.71,327.916C1103.11,329.561 1103.3,332.124 1103.56,333.505C1104.1,336.421 1105.88,339.521 1108.43,342.011C1111.5,345.004 1115.31,346.791 1118.63,346.791C1119.81,346.791 1121.47,346.542 1122.62,345.362C1125.1,342.822 1124.18,336.408 1118.9,331.267C1115.83,328.274 1112.02,326.488 1108.71,326.488ZM1118.63,355.791C1112.94,355.791 1106.94,353.118 1102.15,348.458C1098.24,344.646 1095.6,339.92 1094.71,335.15C1093.73,329.885 1095.03,324.959 1098.27,321.635C1100.87,318.96 1104.58,317.488 1108.71,317.488C1114.39,317.488 1120.4,320.161 1125.18,324.821C1133.82,333.234 1135.52,345.016 1129.07,351.643C1126.46,354.318 1122.75,355.791 1118.63,355.791Z" style="fill:rgb(206,165,196);fill-rule:nonzero;"/>
        <path d="M1080.96,300.453C1087.68,305.346 1090.38,313.199 1087,317.995C1083.61,322.79 1075.41,322.711 1068.69,317.818C1061.96,312.926 1059.26,305.073 1062.65,300.277C1066.04,295.481 1074.23,295.561 1080.96,300.453Z" style="fill:rgb(149,88,129);fill-rule:nonzero;"/>
        <path d="M1070.42,300.717C1069.22,300.717 1067.05,300.959 1065.9,302.577C1064.07,305.166 1065.73,310.738 1071.03,314.595C1073.62,316.476 1076.6,317.554 1079.22,317.554C1080.42,317.554 1082.6,317.313 1083.74,315.694C1085.57,313.106 1083.91,307.534 1078.61,303.676C1076.03,301.796 1073.04,300.717 1070.42,300.717ZM1079.22,325.526C1074.89,325.526 1070.32,323.933 1066.34,321.042C1057.73,314.776 1054.68,304.645 1059.39,297.976C1061.74,294.652 1065.76,292.746 1070.42,292.746C1074.75,292.746 1079.33,294.338 1083.3,297.23C1091.91,303.495 1094.96,313.626 1090.25,320.295C1087.9,323.619 1083.88,325.526 1079.22,325.526Z" style="fill:rgb(206,165,196);fill-rule:nonzero;"/>
        <path d="M1042.64,265.721C1049.98,269.637 1053.75,277.04 1051.05,282.259C1048.36,287.477 1040.23,288.531 1032.89,284.615C1025.56,280.699 1021.79,273.295 1024.49,268.076C1027.18,262.858 1035.31,261.805 1042.64,265.721Z" style="fill:rgb(149,88,129);fill-rule:nonzero;"/>
        <path d="M1033.71,267.34C1030.98,267.34 1028.86,268.298 1028.03,269.903C1026.58,272.721 1028.99,278.011 1034.77,281.099C1037.06,282.322 1039.57,282.995 1041.83,282.995C1044.56,282.995 1046.68,282.037 1047.51,280.431C1048.96,277.614 1046.55,272.325 1040.77,269.237C1038.48,268.014 1035.97,267.34 1033.71,267.34ZM1041.83,290.967C1038.23,290.967 1034.49,289.986 1031.02,288.131C1021.62,283.117 1017.2,273.504 1020.95,266.247C1023.17,261.941 1027.94,259.369 1033.71,259.369C1037.31,259.369 1041.05,260.35 1044.52,262.205C1053.92,267.219 1058.34,276.831 1054.59,284.087C1052.37,288.395 1047.6,290.967 1041.83,290.967Z" style="fill:rgb(206,165,196);fill-rule:nonzero;"/>
        <path d="M990.775,259.196C998.947,260.743 1004.75,266.685 1003.74,272.47C1002.72,278.254 995.281,281.688 987.111,280.141C978.941,278.594 973.137,272.651 974.15,266.865C975.162,261.083 982.607,257.649 990.775,259.196Z" style="fill:rgb(149,88,129);fill-rule:nonzero;"/>
        <path d="M986.881,262.811C982.26,262.811 978.559,264.805 978.076,267.552C977.529,270.675 981.41,275.004 987.854,276.225C988.908,276.424 989.971,276.526 991.006,276.526C995.627,276.526 999.33,274.531 999.813,271.782C1000.36,268.661 996.477,264.332 990.035,263.112C988.979,262.913 987.918,262.811 986.881,262.811ZM991.006,284.497C989.475,284.497 987.914,284.349 986.371,284.057C975.908,282.076 968.816,274.222 970.225,266.177C971.393,259.502 978.242,254.84 986.881,254.84C988.414,254.84 989.975,254.988 991.518,255.28C1001.98,257.261 1009.07,265.113 1007.66,273.157C1006.49,279.834 999.645,284.497 991.006,284.497Z" style="fill:rgb(206,165,196);fill-rule:nonzero;"/>
        <path d="M936.688,259.416C944.256,257.963 951.283,261.104 952.381,266.436C953.48,271.766 948.236,277.261 940.67,278.713C933.102,280.165 926.072,277.022 924.975,271.69C923.875,266.363 929.121,260.866 936.688,259.416Z" style="fill:rgb(149,88,129);fill-rule:nonzero;"/>
        <path d="M940.371,262.755C939.387,262.755 938.381,262.852 937.383,263.043C933.887,263.714 930.902,265.457 929.4,267.706C928.887,268.476 928.328,269.663 928.592,270.944C929.121,273.511 932.652,275.374 936.988,275.374C937.973,275.374 938.977,275.276 939.973,275.085C943.469,274.415 946.453,272.672 947.955,270.424C948.703,269.302 948.977,268.211 948.764,267.181C948.234,264.616 944.705,262.755 940.371,262.755ZM936.988,282.761C929.037,282.761 922.609,278.515 921.357,272.435C920.748,269.486 921.424,266.349 923.258,263.603C925.873,259.686 930.516,256.838 935.992,255.789C937.445,255.509 938.92,255.368 940.371,255.368C948.32,255.368 954.746,259.612 955.998,265.69C956.607,268.643 955.932,271.781 954.098,274.528C951.482,278.442 946.842,281.29 941.365,282.34C939.912,282.62 938.439,282.761 936.988,282.761Z" style="fill:rgb(206,165,196);fill-rule:nonzero;"/>
        <path d="M895.117,272.947C901.061,271.12 906.971,273.026 908.318,277.206C909.666,281.385 905.941,286.25 899.998,288.077C894.057,289.903 888.145,287.996 886.797,283.815C885.449,279.639 889.178,274.772 895.117,272.947Z" style="fill:rgb(149,88,129);fill-rule:nonzero;"/>
        <path d="M899.629,275.233C898.43,275.233 897.207,275.422 895.994,275.796C893.248,276.639 891.008,278.298 889.998,280.233C889.652,280.896 889.309,281.897 889.633,282.901C890.189,284.629 892.543,285.79 895.49,285.79C896.688,285.79 897.91,285.601 899.123,285.228C901.869,284.384 904.109,282.726 905.117,280.791C905.621,279.826 905.742,278.928 905.482,278.12C904.926,276.394 902.572,275.233 899.629,275.233ZM895.49,291.75C889.861,291.75 885.334,288.994 883.961,284.729C883.215,282.417 883.482,279.842 884.713,277.479C886.469,274.11 889.941,271.419 894.242,270.099C896.023,269.551 897.836,269.273 899.629,269.273C905.256,269.273 909.781,272.028 911.154,276.291C911.902,278.605 911.635,281.182 910.402,283.545C908.648,286.914 905.174,289.604 900.873,290.925C899.094,291.472 897.283,291.75 895.49,291.75Z" style="fill:rgb(206,165,196);fill-rule:nonzero;"/>
        <path d="M1147.7,370.148C1154.43,376.7 1156.13,385.859 1151.5,390.607C1146.88,395.354 1137.68,393.891 1130.95,387.338C1124.23,380.786 1122.53,371.626 1127.15,366.879C1131.78,362.132 1140.98,363.596 1147.7,370.148Z" style="fill:rgb(149,88,129);fill-rule:nonzero;"/>
        <path d="M1134.37,368.592C1133.18,368.592 1131.52,368.839 1130.38,370.02C1128.77,371.665 1128.96,374.228 1129.22,375.609C1129.76,378.525 1131.54,381.625 1134.09,384.115C1137.17,387.108 1140.97,388.895 1144.29,388.895C1145.47,388.895 1147.13,388.646 1148.28,387.466C1150.76,384.926 1149.84,378.512 1144.56,373.371C1141.49,370.378 1137.68,368.592 1134.37,368.592ZM1144.29,397.895C1138.6,397.895 1132.6,395.222 1127.81,390.562C1123.9,386.75 1121.26,382.024 1120.37,377.254C1119.39,371.989 1120.69,367.063 1123.93,363.739C1126.53,361.064 1130.24,359.592 1134.37,359.592C1140.05,359.592 1146.06,362.265 1150.84,366.925C1159.48,375.338 1161.18,387.12 1154.73,393.747C1152.12,396.422 1148.41,397.895 1144.29,397.895Z" style="fill:rgb(206,165,196);fill-rule:nonzero;"/>
        <path d="M1186.68,412.216C1191.62,420.201 1191.06,429.5 1185.42,432.988C1179.79,436.474 1171.21,432.829 1166.27,424.844C1161.33,416.859 1161.9,407.559 1167.53,404.073C1173.17,400.585 1181.74,404.232 1186.68,412.216Z" style="fill:rgb(149,88,129);fill-rule:nonzero;"/>
        <path d="M1172.36,407.25C1171.42,407.25 1170.6,407.469 1169.9,407.899C1167.95,409.107 1167.51,411.641 1167.43,413.044C1167.25,416.004 1168.22,419.443 1170.1,422.477C1173.23,427.542 1177.63,429.81 1180.6,429.81C1181.53,429.81 1182.36,429.592 1183.05,429.161C1186.07,427.294 1186.73,420.849 1182.86,414.583C1179.72,409.518 1175.32,407.25 1172.36,407.25ZM1180.6,438.81C1173.83,438.81 1166.87,434.366 1162.45,427.212C1159.57,422.566 1158.15,417.341 1158.45,412.499C1158.77,407.153 1161.22,402.687 1165.17,400.246C1167.28,398.94 1169.76,398.25 1172.36,398.25C1179.13,398.25 1186.08,402.694 1190.51,409.848C1196.85,420.102 1195.66,431.947 1187.79,436.814C1185.68,438.12 1183.19,438.81 1180.6,438.81Z" style="fill:rgb(206,165,196);fill-rule:nonzero;"/>
        <path d="M864.758,283.681C868.766,281.496 873.303,281.999 874.889,284.808C876.473,287.621 874.506,291.667 870.496,293.858C866.486,296.046 861.953,295.541 860.367,292.732C858.781,289.922 860.748,285.872 864.758,283.681Z" style="fill:rgb(149,88,129);fill-rule:nonzero;"/>
        <path d="M869.818,284.512C868.521,284.512 867.098,284.899 865.807,285.603C863.955,286.615 862.584,288.14 862.145,289.682C861.924,290.45 861.969,291.114 862.273,291.657C862.76,292.516 863.941,293.029 865.438,293.029C866.732,293.029 868.156,292.641 869.447,291.937C871.301,290.924 872.67,289.4 873.111,287.86C873.33,287.092 873.287,286.426 872.98,285.882C872.496,285.024 871.314,284.512 869.818,284.512ZM865.438,297.408C862.295,297.408 859.752,296.096 858.461,293.809C857.582,292.252 857.395,290.359 857.934,288.478C858.701,285.794 860.807,283.346 863.709,281.759C865.662,280.695 867.773,280.132 869.818,280.132C872.961,280.132 875.504,281.444 876.795,283.731C877.674,285.29 877.859,287.184 877.32,289.065C876.553,291.746 874.449,294.193 871.547,295.78C869.594,296.845 867.48,297.408 865.438,297.408Z" style="fill:rgb(206,165,196);fill-rule:nonzero;"/>
        <path d="M846.023,299.179C849.41,296.933 853.473,297.031 855.096,299.399C856.717,301.773 855.283,305.513 851.896,307.766C848.508,310.014 844.447,309.915 842.824,307.545C841.203,305.175 842.635,301.431 846.023,299.179Z" style="fill:rgb(149,88,129);fill-rule:nonzero;"/>
        <path d="M851.051,299.506C849.766,299.506 848.363,299.967 847.102,300.803C845.537,301.843 844.438,303.302 844.166,304.703C844.029,305.401 844.119,305.987 844.434,306.444C844.865,307.077 845.754,307.439 846.869,307.439C848.154,307.439 849.557,306.979 850.818,306.142C852.383,305.101 853.48,303.643 853.754,302.243C853.889,301.545 853.799,300.958 853.486,300.499C853.055,299.868 852.166,299.506 851.051,299.506ZM846.869,311.338C844.447,311.338 842.387,310.357 841.215,308.646C840.316,307.333 840.006,305.669 840.338,303.959C840.813,301.52 842.492,299.186 844.945,297.555C846.84,296.298 849.008,295.607 851.051,295.607C853.473,295.607 855.533,296.587 856.703,298.297C857.602,299.613 857.914,301.278 857.58,302.988C857.105,305.426 855.428,307.759 852.975,309.389C851.08,310.646 848.912,311.338 846.869,311.338Z" style="fill:rgb(206,165,196);fill-rule:nonzero;"/>
    </g>
</svg>
